<svg width="58" height="58" viewBox="0 0 58 58" fill="none" xmlns="http://www.w3.org/2000/svg">
<path d="M19.7271 32.2929C13.5197 34.7564 1.93819 36.9027 2.00025 28.6263C2.06231 20.35 13.5197 22.4962 19.7271 24.9597" stroke="black" stroke-width="2"/>
<path d="M37.5255 32.2929C43.7329 34.7564 55.3145 36.9027 55.2524 28.6263C55.1904 20.35 43.7329 22.4962 37.5255 24.9597" stroke="black" stroke-width="2"/>
<path d="M19.7271 32.2929C13.5197 34.7564 1.93819 36.9027 2.00025 28.6263C2.06231 20.35 13.5197 22.4962 19.7271 24.9597" stroke="black" stroke-width="2"/>
<path d="M37.5255 32.2929C43.7329 34.7564 55.3145 36.9027 55.2524 28.6263C55.1904 20.35 43.7329 22.4962 37.5255 24.9597" stroke="black" stroke-width="2"/>
<path d="M24.9594 19.7271C22.496 13.5197 20.3497 1.93819 28.626 2.00025C36.9024 2.06231 34.7561 13.5197 32.2926 19.7271" stroke="black" stroke-width="2"/>
<path d="M24.9594 37.5255C22.496 43.7329 20.3497 55.3144 28.626 55.2524C36.9024 55.1903 34.7561 43.7329 32.2926 37.5255" stroke="black" stroke-width="2"/>
<path d="M32.3263 19.741C34.9736 13.6097 41.6454 3.9027 47.4538 9.79884C53.2621 15.695 43.6429 22.279 37.5116 24.9263" stroke="black" stroke-width="2"/>
<path d="M19.7407 32.3263C13.6095 34.9737 3.90246 41.6455 9.7986 47.4538C15.6947 53.2622 22.2787 43.6429 24.9261 37.5117" stroke="black" stroke-width="2"/>
<path d="M19.7407 24.9263C13.6095 22.279 3.90246 15.6072 9.7986 9.79883C15.6947 3.99046 22.2787 13.6097 24.9261 19.741" stroke="black" stroke-width="2"/>
<path d="M32.3263 37.5116C34.9736 43.6429 41.6454 53.3499 47.4538 47.4538C53.2621 41.5576 43.6429 34.9736 37.5116 32.3263" stroke="black" stroke-width="2"/>
<circle cx="28.6256" cy="28.5229" r="8.97523" stroke="black" stroke-width="2"/>
</svg>
