<svg width="1440" height="845" viewBox="0 0 1440 845" fill="none" xmlns="http://www.w3.org/2000/svg">
<g opacity="0.21">
<g clip-path="url(#clip0)">
<path d="M139.027 240.098C138.845 239.931 138.691 239.744 138.571 239.548C135.578 236.759 132.924 233.527 130.813 230.398C129.089 227.839 127.716 225.327 126.823 223.185C125.81 220.751 125.385 218.628 125.692 217.159C125.962 215.851 126.697 214.952 127.93 214.555C130.015 213.892 132.495 214.782 135.026 216.765C137.487 218.687 140.162 221.755 142.558 225.348C144.915 228.887 147.028 232.98 148.399 237.032C148.924 238.583 149.336 240.13 149.622 241.654C150.505 242.001 151.384 242.275 152.23 242.463C153.93 242.833 155.491 242.836 156.748 242.395C157.876 241.995 158.79 241.191 159.365 239.905C159.887 238.737 160.151 237.189 160.093 235.202C158.91 234.524 157.756 233.731 156.626 232.847C153.32 230.266 150.3 226.891 148.035 223.296C143.351 215.866 141.507 211.078 141.461 208.463C141.406 205.393 142.944 204.14 145.499 204.413C147 204.573 148.901 205.56 150.888 207.216C156.048 211.518 162.832 221.07 164.423 232.175L164.447 232.363C165.122 232.64 165.791 232.861 166.446 233.024C168.552 233.537 170.567 233.413 172.26 232.387C172.969 231.961 173.634 231.368 174.256 230.608C175.034 229.653 176.476 229.547 177.477 230.377C178.479 231.206 178.663 232.657 177.893 233.614C176.958 234.773 175.913 235.674 174.793 236.355C172.009 238.034 168.834 238.282 165.589 237.489C165.285 237.412 164.974 237.334 164.665 237.24C164.551 239.093 164.169 240.668 163.58 241.984C162.494 244.424 160.711 245.96 158.507 246.745C157.353 247.156 156.092 247.342 154.768 247.333C154.71 247.338 154.652 247.344 154.595 247.342C153.072 247.354 151.545 247.11 150.037 246.662C149.922 249.495 149.14 252.053 147.48 254.097C146.545 255.256 145.5 256.157 144.38 256.837C141.596 258.517 138.421 258.765 135.176 257.972C134.864 257.893 134.554 257.807 134.245 257.713C134.208 258.249 134.147 258.78 134.066 259.292C133.692 261.514 132.842 263.485 131.32 265.02C129.472 266.88 126.972 267.732 124.152 267.716C124.077 267.727 124.003 267.73 123.922 267.731C122.398 267.743 120.871 267.499 119.363 267.051C119.249 269.885 118.467 272.442 116.806 274.486C115.871 275.645 114.826 276.546 113.706 277.226C110.922 278.906 107.747 279.154 104.502 278.361C104.183 278.281 103.856 278.192 103.532 278.095C103.419 279.526 103.14 280.793 102.723 281.915C101.837 284.279 100.322 285.958 98.358 286.952C96.4521 287.893 94.1652 288.178 91.6712 287.788C88.6155 287.307 85.2017 285.807 81.7825 283.318C79.5975 281.723 77.537 279.743 75.8099 277.439C74.2148 275.31 72.9094 272.92 72.0474 270.322C71.643 269.103 72.2881 267.837 73.4945 267.499C74.7008 267.16 75.9991 267.875 76.4035 269.093C77.093 271.191 78.1533 273.123 79.4306 274.838C80.8413 276.72 82.5403 278.349 84.3502 279.671C87.1346 281.698 89.81 282.909 92.1225 283.267C93.6669 283.507 95.0249 283.37 96.0888 282.824C97.0972 282.315 97.8919 281.402 98.3846 280.078C98.7851 279 98.9948 277.666 98.9676 276.059C97.7928 275.382 96.6384 274.59 95.5226 273.716C92.2172 271.135 89.1976 267.759 86.9321 264.165C82.255 256.744 80.4197 251.95 80.3662 249.334C80.311 246.263 81.8486 245.01 84.4038 245.283C85.9051 245.443 87.8063 246.43 89.7935 248.087C94.9528 252.388 101.737 261.941 103.328 273.045L103.352 273.233C104.027 273.511 104.696 273.732 105.351 273.895C107.457 274.408 109.464 274.282 111.165 273.257C111.874 272.831 112.539 272.239 113.161 271.479C114.469 269.867 114.919 267.626 114.765 265.072C113.75 264.503 112.749 263.857 111.766 263.151C110.711 262.399 109.668 261.571 108.672 260.663C105.365 257.723 102.42 254.2 100.128 250.801C98.3973 248.241 97.032 245.73 96.1387 243.588C95.1258 241.154 94.701 239.031 95.0075 237.562C95.2776 236.255 96.0129 235.355 97.2459 234.958C99.3307 234.295 101.81 235.185 104.342 237.168C106.803 239.09 109.478 242.159 111.874 245.752C114.231 249.29 116.343 253.384 117.715 257.435C118.24 258.986 118.654 260.525 118.933 262.041C119.776 262.38 120.616 262.647 121.43 262.83C124.137 263.44 126.517 263.141 127.948 261.702C128.789 260.853 129.281 259.672 129.508 258.285C129.641 257.479 129.688 256.61 129.662 255.689C128.48 255.011 127.325 254.219 126.195 253.335C122.889 250.754 119.87 247.378 117.604 243.784C112.921 236.354 111.076 231.566 111.031 228.951C110.975 225.88 112.513 224.627 115.068 224.901C116.57 225.06 118.471 226.048 120.458 227.704C125.617 232.005 132.402 241.558 133.992 252.663L134.016 252.85C134.691 253.128 135.36 253.349 136.015 253.512C138.121 254.025 140.128 253.899 141.829 252.874C142.539 252.448 143.204 251.856 143.825 251.096C145.133 249.484 145.583 247.243 145.429 244.689C145.037 244.469 144.647 244.233 144.257 243.997C142.441 242.897 140.654 241.579 139.027 240.098ZM111.169 256.956C111.324 257.047 111.476 257.153 111.615 257.289C112.218 257.841 112.827 258.355 113.45 258.839L113.396 258.686C112.169 255.059 110.256 251.359 108.112 248.137C106 244.968 103.699 242.316 101.639 240.703C100.789 240.036 100.063 239.581 99.5254 239.399C99.6182 240.03 99.9071 240.933 100.366 242.026C101.137 243.891 102.346 246.088 103.881 248.375C105.885 251.325 108.398 254.389 111.169 256.956ZM98.0944 270.046C95.9904 261.729 90.9223 254.821 86.9623 251.52C86.2099 250.893 85.5514 250.427 85.0237 250.143C85.3618 252.203 87.0616 255.961 90.7856 261.86C92.7259 264.943 95.2952 267.825 98.0944 270.046ZM128.776 249.659C126.672 241.342 121.604 234.434 117.644 231.132C116.891 230.506 116.233 230.039 115.705 229.755C116.043 231.816 117.743 235.574 121.467 241.472C123.409 244.547 125.977 247.437 128.776 249.659ZM144.159 238.527C144.133 238.443 144.106 238.367 144.08 238.282C142.853 234.655 140.94 230.956 138.796 227.733C136.684 224.565 134.384 221.913 132.324 220.3C131.473 219.632 130.747 219.178 130.21 218.996C130.302 219.626 130.591 220.53 131.05 221.623C131.821 223.488 133.03 225.685 134.565 227.971C137.101 231.741 140.478 235.673 144.159 238.527ZM159.197 229.177C157.093 220.86 152.025 213.952 148.065 210.651C147.313 210.024 146.654 209.558 146.127 209.274C146.465 211.334 148.164 215.092 151.888 220.991C153.83 224.066 156.398 226.956 159.197 229.177Z" fill="black"/>
</g>
<path d="M43.3211 476.294L30.9136 445.591L63.7022 450.195L43.3211 476.294Z" stroke="black" stroke-width="5"/>
<path d="M3.61947 767.089C7.96338 743.689 30.4501 728.243 53.8442 732.587C77.2383 736.932 92.6824 759.422 88.3385 782.822C83.9946 806.221 61.5079 821.668 38.1138 817.323C14.7197 812.979 -0.724434 790.488 3.61947 767.089Z" stroke="black" stroke-width="5"/>
<path d="M6.76543 616.581C6.67243 616.681 6.56918 616.766 6.46072 616.832C4.91225 618.481 3.12333 619.94 1.39466 621.098C-0.0188848 622.043 -1.40516 622.795 -2.58481 623.281C-3.92528 623.833 -5.09167 624.06 -5.89452 623.884C-6.60938 623.728 -7.09727 623.317 -7.3068 622.631C-7.65587 621.471 -7.15179 620.099 -6.04822 618.702C-4.97814 617.345 -3.27884 615.874 -1.29373 614.559C0.66113 613.267 2.91855 612.112 5.14779 611.367C6.00125 611.083 6.85179 610.86 7.68934 610.708C7.88501 610.22 8.04099 609.733 8.14981 609.265C8.36404 608.323 8.37613 607.457 8.14285 606.757C7.93122 606.13 7.49664 605.619 6.79572 605.295C6.15921 605 5.31262 604.847 4.22326 604.871C3.84386 605.525 3.40184 606.162 2.90988 606.785C1.47336 608.609 -0.396813 610.27 -2.38162 611.512C-6.48489 614.079 -9.12099 615.083 -10.5542 615.097C-12.2373 615.115 -12.9135 614.256 -12.7468 612.84C-12.6491 612.007 -12.0954 610.956 -11.1745 609.861C-8.78279 607.016 -3.50235 603.292 2.59365 602.456L2.6966 602.443C2.85343 602.07 2.97904 601.7 3.0726 601.337C3.36792 600.17 3.31309 599.052 2.76209 598.108C2.53362 597.713 2.21326 597.341 1.80102 596.993C1.28254 596.558 1.23431 595.757 1.69555 595.205C2.15679 594.652 2.95338 594.556 3.47266 594.987C4.1016 595.511 4.58824 596.095 4.95356 596.719C5.85541 598.271 5.96997 600.034 5.51384 601.831C5.46949 601.999 5.42433 602.172 5.37071 602.343C6.38561 602.414 7.24621 602.632 7.96324 602.965C9.29302 603.578 10.1231 604.574 10.5386 605.8C10.7562 606.442 10.8493 607.142 10.8354 607.877C10.8382 607.909 10.8409 607.941 10.8395 607.973C10.8357 608.818 10.6917 609.665 10.4361 610.499C11.9882 610.575 13.3843 611.02 14.4935 611.949C15.1224 612.473 15.6091 613.057 15.9744 613.681C16.8762 615.233 16.9908 616.996 16.5347 618.793C16.4895 618.966 16.4401 619.138 16.3865 619.309C16.6797 619.331 16.9706 619.367 17.2505 619.415C18.4658 619.631 19.5404 620.111 20.3711 620.962C21.378 621.995 21.8284 623.386 21.8005 624.951C21.8058 624.993 21.807 625.034 21.8073 625.079C21.8035 625.924 21.6595 626.771 21.404 627.605C22.9561 627.681 24.3522 628.126 25.4613 629.055C26.0903 629.579 26.5769 630.163 26.9422 630.787C27.8441 632.339 27.9586 634.102 27.5025 635.899C27.4565 636.076 27.4055 636.257 27.3503 636.436C28.1338 636.505 28.8258 636.665 29.4383 636.901C30.7275 637.403 31.6376 638.25 32.1694 639.345C32.6723 640.406 32.8128 641.676 32.5824 643.058C32.2986 644.752 31.4538 646.64 30.0668 648.527C29.178 649.732 28.0792 650.867 26.8051 651.816C25.6275 652.692 24.3093 653.406 22.8796 653.874C22.2089 654.093 21.5195 653.73 21.3422 653.059C21.1649 652.388 21.5649 651.671 22.2356 651.451C23.3899 651.078 24.4556 650.498 25.4039 649.796C26.4446 649.021 27.3489 648.085 28.0855 647.087C29.2151 645.55 29.8966 644.071 30.1082 642.789C30.2496 641.933 30.184 641.179 29.8916 640.586C29.6196 640.025 29.1247 639.58 28.4022 639.301C27.8143 639.074 27.0845 638.952 26.2036 638.96C25.8251 639.609 25.383 640.247 24.8969 640.862C23.4604 642.685 21.5902 644.347 19.6054 645.589C15.5072 648.153 12.8677 649.151 11.4337 649.169C9.75052 649.187 9.07432 648.329 9.24107 646.912C9.33872 646.08 9.89251 645.029 10.8134 643.933C13.2051 641.088 18.4855 637.364 24.5815 636.528L24.6845 636.516C24.8413 636.142 24.9669 635.772 25.0605 635.409C25.3558 634.243 25.3001 633.129 24.75 632.181C24.5215 631.785 24.2011 631.414 23.7889 631.066C22.9143 630.333 21.6894 630.074 20.2887 630.149C19.9703 630.709 19.6096 631.262 19.2158 631.804C18.797 632.387 18.336 632.962 17.8316 633.511C16.1983 635.333 14.2484 636.953 12.3702 638.21C10.9558 639.16 9.57033 639.907 8.39069 640.393C7.05021 640.945 5.88382 641.172 5.08097 640.996C4.36612 640.84 3.87823 640.429 3.66869 639.743C3.31963 638.583 3.82371 637.211 4.92728 635.814C5.99736 634.457 7.69665 632.986 9.68176 631.671C11.6366 630.379 13.894 629.224 16.1233 628.479C16.9767 628.195 17.8231 627.972 18.6556 627.823C18.8472 627.357 18.9991 626.892 19.1047 626.441C19.4575 624.941 19.309 623.62 18.5302 622.819C18.0706 622.349 17.4266 622.071 16.668 621.939C16.2274 621.862 15.7517 621.833 15.2467 621.843C14.8673 622.496 14.4253 623.133 13.9333 623.757C12.4968 625.58 10.6266 627.241 8.64181 628.483C4.53854 631.051 1.90244 632.054 0.469255 632.069C-1.21391 632.086 -1.89012 631.228 -1.72337 629.811C-1.62572 628.979 -1.07193 627.928 -0.151073 626.832C2.24065 623.988 7.52108 620.263 13.6171 619.428L13.72 619.415C13.8769 619.041 14.0025 618.671 14.096 618.309C14.3914 617.142 14.3357 616.028 13.7855 615.08C13.557 614.684 13.2367 614.313 12.8244 613.965C11.9499 613.232 10.7249 612.973 9.32429 613.048C9.20091 613.265 9.06908 613.48 8.93725 613.695C8.32229 614.698 7.58811 615.684 6.76543 616.581ZM15.8169 632.109C15.8678 632.024 15.9271 631.94 16.0025 631.863C16.3092 631.531 16.5947 631.195 16.8641 630.852L16.7798 630.881C14.7839 631.547 12.7436 632.593 10.9635 633.769C9.21291 634.927 7.74434 636.193 6.84659 637.329C6.4751 637.798 6.22135 638.199 6.118 638.497C6.46392 638.448 6.96107 638.291 7.56308 638.041C8.59036 637.621 9.80247 636.96 11.0656 636.117C12.6959 635.018 14.3916 633.636 15.8169 632.109ZM22.903 639.42C18.3312 640.552 14.5116 643.335 12.6758 645.519C12.3275 645.933 12.0676 646.297 11.9084 646.589C13.0397 646.41 15.1105 645.482 18.368 643.441C20.0704 642.377 21.6671 640.963 22.903 639.42ZM11.936 622.309C7.36415 623.442 3.54459 626.225 1.70873 628.408C1.36048 628.823 1.10054 629.186 0.941404 629.478C2.07268 629.299 4.14345 628.372 7.401 626.33C9.09912 625.266 10.7 623.853 11.936 622.309ZM5.93913 613.727C5.89279 613.741 5.85067 613.755 5.80432 613.769C3.80844 614.435 1.76811 615.481 -0.0119536 616.657C-1.76258 617.815 -3.23116 619.081 -4.12891 620.217C-4.50039 620.686 -4.75415 621.087 -4.8575 621.385C-4.51157 621.336 -4.01443 621.179 -3.41241 620.929C-2.38514 620.509 -1.17302 619.848 0.0901064 619.005C2.17261 617.614 4.35044 615.757 5.93913 613.727ZM0.915942 605.343C-3.65586 606.475 -7.47543 609.258 -9.31128 611.442C-9.65953 611.857 -9.91948 612.22 -10.0786 612.512C-8.94734 612.333 -6.87656 611.405 -3.61902 609.364C-1.92089 608.299 -0.31997 606.887 0.915942 605.343Z" fill="black"/>
<path d="M15.9698 180.661L25.1085 155.362L42.4448 175.927L15.9698 180.661Z" stroke="black" stroke-width="4"/>
</g>
<g opacity="0.21">
<g clip-path="url(#clip1)">
<path d="M1360.34 779.139C1360.57 779.263 1360.77 779.413 1360.95 779.582C1364.73 781.651 1368.28 784.259 1371.25 786.904C1373.67 789.067 1375.73 791.275 1377.2 793.229C1378.86 795.45 1379.85 797.507 1379.92 799.086C1379.98 800.492 1379.47 801.601 1378.31 802.328C1376.36 803.547 1373.59 803.284 1370.49 801.919C1367.48 800.596 1363.95 798.16 1360.57 795.116C1357.24 792.117 1354.02 788.488 1351.57 784.709C1350.63 783.263 1349.8 781.79 1349.12 780.308C1348.12 780.184 1347.16 780.134 1346.24 780.162C1344.41 780.226 1342.82 780.63 1341.65 781.407C1340.6 782.109 1339.88 783.168 1339.62 784.63C1339.4 785.958 1339.53 787.607 1340.11 789.621C1341.49 790.005 1342.87 790.514 1344.26 791.122C1348.3 792.896 1352.26 795.557 1355.51 798.636C1362.23 805.003 1365.36 809.41 1366.08 812.068C1366.94 815.188 1365.69 816.867 1363.01 817.254C1361.44 817.481 1359.24 816.968 1356.78 815.795C1350.4 812.746 1340.99 804.76 1336.47 793.838L1336.4 793.652C1335.64 793.544 1334.9 793.493 1334.19 793.497C1331.9 793.522 1329.88 794.173 1328.42 795.662C1327.8 796.281 1327.28 797.059 1326.84 797.996C1326.3 799.174 1324.85 799.657 1323.61 799.071C1322.38 798.485 1321.81 797.052 1322.35 795.874C1323 794.448 1323.83 793.256 1324.8 792.27C1327.2 789.831 1330.38 788.751 1333.9 788.716C1334.23 788.716 1334.57 788.715 1334.91 788.73C1334.54 786.809 1334.52 785.101 1334.78 783.605C1335.26 780.831 1336.68 778.799 1338.72 777.424C1339.79 776.703 1341.03 776.186 1342.39 775.851C1342.44 775.83 1342.5 775.809 1342.56 775.796C1344.11 775.388 1345.73 775.239 1347.39 775.304C1346.77 772.382 1346.9 769.567 1348.07 767.048C1348.72 765.622 1349.55 764.43 1350.52 763.444C1352.92 761.005 1356.1 759.925 1359.62 759.89C1359.96 759.889 1360.3 759.896 1360.64 759.912C1360.53 759.356 1360.46 758.797 1360.41 758.254C1360.21 755.888 1360.57 753.654 1361.72 751.691C1363.12 749.312 1365.45 747.79 1368.34 747.073C1368.41 747.043 1368.49 747.021 1368.57 746.998C1370.12 746.589 1371.74 746.441 1373.4 746.506C1372.78 743.583 1372.91 740.769 1374.07 738.25C1374.73 736.823 1375.56 735.632 1376.53 734.646C1378.93 732.206 1382.11 731.127 1385.63 731.092C1385.97 731.09 1386.33 731.096 1386.69 731.111C1386.43 729.62 1386.39 728.255 1386.52 727C1386.81 724.357 1387.92 722.248 1389.66 720.722C1391.37 719.265 1393.63 718.38 1396.27 718.129C1399.52 717.824 1403.39 718.466 1407.53 720.118C1410.18 721.178 1412.8 722.662 1415.16 724.565C1417.34 726.324 1419.3 728.423 1420.85 730.851C1421.58 731.991 1421.25 733.451 1420.11 734.11C1418.97 734.77 1417.45 734.378 1416.72 733.239C1415.47 731.277 1413.89 729.581 1412.14 728.163C1410.21 726.609 1408.05 725.388 1405.86 724.509C1402.49 723.164 1399.44 722.624 1396.99 722.861C1395.35 723.019 1394 723.511 1393.06 724.346C1392.16 725.128 1391.58 726.267 1391.43 727.747C1391.3 728.951 1391.43 730.368 1391.88 732.002C1393.25 732.387 1394.64 732.895 1396 733.496C1400.05 735.271 1404.01 737.931 1407.26 741.011C1413.96 747.37 1417.08 751.786 1417.82 754.443C1418.67 757.563 1417.43 759.242 1414.75 759.629C1413.18 759.856 1410.98 759.343 1408.52 758.17C1402.13 755.122 1392.72 747.135 1388.21 736.213L1388.14 736.028C1387.37 735.92 1386.63 735.868 1385.92 735.872C1383.64 735.897 1381.62 736.548 1380.15 738.037C1379.54 738.656 1379.02 739.434 1378.58 740.371C1377.66 742.357 1377.79 744.762 1378.61 747.329C1379.79 747.646 1380.98 748.045 1382.17 748.51C1383.44 749.002 1384.72 749.577 1385.98 750.245C1390.12 752.385 1394.04 755.215 1397.26 758.089C1399.7 760.251 1401.74 762.46 1403.21 764.414C1404.88 766.635 1405.87 768.692 1405.94 770.271C1406 771.676 1405.48 772.786 1404.33 773.512C1402.37 774.731 1399.61 774.468 1396.51 773.103C1393.5 771.781 1389.97 769.345 1386.59 766.3C1383.26 763.301 1380.04 759.672 1377.58 755.894C1376.64 754.447 1375.82 752.983 1375.14 751.508C1374.19 751.382 1373.27 751.328 1372.39 751.353C1369.46 751.434 1367.11 752.36 1366.03 754.201C1365.39 755.286 1365.19 756.62 1365.32 758.095C1365.4 758.953 1365.58 759.852 1365.84 760.785C1367.22 761.17 1368.61 761.678 1369.99 762.286C1374.04 764.061 1378 766.721 1381.25 769.801C1387.96 776.167 1391.09 780.575 1391.82 783.232C1392.67 786.353 1391.43 788.032 1388.75 788.418C1387.18 788.646 1384.98 788.133 1382.52 786.959C1376.13 783.911 1366.72 775.925 1362.21 765.002L1362.14 764.817C1361.37 764.709 1360.63 764.657 1359.92 764.662C1357.64 764.686 1355.62 765.337 1354.15 766.826C1353.54 767.445 1353.01 768.223 1352.58 769.161C1351.66 771.147 1351.79 773.551 1352.61 776.119C1353.07 776.241 1353.52 776.381 1353.98 776.52C1356.12 777.17 1358.29 778.051 1360.34 779.139ZM1384.39 754.679C1384.21 754.627 1384.03 754.558 1383.85 754.455C1383.09 754.048 1382.33 753.683 1381.57 753.351L1381.67 753.493C1383.86 756.876 1386.78 760.155 1389.81 762.887C1392.79 765.572 1395.83 767.68 1398.35 768.791C1399.39 769.25 1400.25 769.525 1400.85 769.571C1400.59 768.952 1400.06 768.105 1399.3 767.108C1398.03 765.405 1396.23 763.477 1394.06 761.542C1391.25 759.052 1387.89 756.578 1384.39 754.679ZM1394.33 737.912C1398.64 745.855 1405.62 751.588 1410.52 753.928C1411.45 754.372 1412.24 754.676 1412.85 754.829C1411.97 752.814 1409.26 749.42 1403.92 744.367C1401.14 741.725 1397.77 739.451 1394.33 737.912ZM1368.31 766.711C1372.63 774.654 1379.6 780.387 1384.5 782.727C1385.43 783.171 1386.22 783.475 1386.84 783.628C1385.96 781.613 1383.24 778.219 1377.91 773.166C1375.12 770.532 1371.75 768.25 1368.31 766.711ZM1355.51 782.078C1355.56 782.158 1355.6 782.229 1355.65 782.308C1357.85 785.692 1360.76 788.971 1363.79 791.702C1366.77 794.387 1369.81 796.495 1372.33 797.606C1373.37 798.066 1374.23 798.341 1374.83 798.387C1374.57 797.768 1374.04 796.92 1373.29 795.924C1372.01 794.22 1370.21 792.292 1368.05 790.358C1364.48 787.17 1360.01 784.034 1355.51 782.078ZM1342.59 795.538C1346.9 803.481 1353.87 809.214 1358.77 811.554C1359.7 811.997 1360.5 812.302 1361.11 812.454C1360.23 810.439 1357.52 807.045 1352.18 801.992C1349.4 799.359 1346.02 797.077 1342.59 795.538Z" fill="black"/>
</g>
<path d="M1396.56 512.837L1417.49 541.326L1382.36 545.21L1396.56 512.837Z" stroke="black" stroke-width="5"/>
<path d="M1361.59 205.897C1363.25 230.989 1344.26 252.674 1319.17 254.333C1294.09 255.991 1272.4 236.995 1270.75 211.903C1269.09 186.811 1288.08 165.125 1313.17 163.467C1338.25 161.808 1359.94 180.804 1361.59 205.897Z" stroke="black" stroke-width="5"/>
<path d="M1397.41 360.374C1397.48 360.247 1397.56 360.134 1397.65 360.038C1398.81 357.952 1400.25 355.997 1401.72 354.364C1402.91 353.031 1404.13 351.903 1405.21 351.1C1406.43 350.187 1407.57 349.652 1408.43 349.623C1409.2 349.596 1409.81 349.889 1410.2 350.535C1410.86 351.628 1410.7 353.16 1409.94 354.873C1409.2 356.537 1407.85 358.481 1406.16 360.34C1404.5 362.168 1402.5 363.935 1400.42 365.275C1399.62 365.788 1398.81 366.236 1397.99 366.609C1397.92 367.159 1397.89 367.696 1397.9 368.203C1397.92 369.22 1398.14 370.108 1398.56 370.761C1398.94 371.346 1399.51 371.754 1400.31 371.903C1401.04 372.038 1401.94 371.974 1403.05 371.666C1403.27 370.9 1403.55 370.135 1403.89 369.37C1404.88 367.135 1406.36 364.952 1408.06 363.168C1411.59 359.479 1414.02 357.768 1415.47 357.381C1417.19 356.925 1418.1 357.625 1418.3 359.115C1418.42 359.99 1418.13 361.207 1417.47 362.565C1415.77 366.091 1411.35 371.268 1405.34 373.708L1405.24 373.747C1405.18 374.169 1405.14 374.58 1405.14 374.975C1405.15 376.242 1405.49 377.37 1406.3 378.19C1406.64 378.534 1407.06 378.83 1407.57 379.078C1408.21 379.388 1408.47 380.193 1408.14 380.876C1407.82 381.56 1407.03 381.866 1406.39 381.561C1405.61 381.19 1404.96 380.721 1404.42 380.178C1403.1 378.829 1402.52 377.059 1402.52 375.106C1402.52 374.922 1402.53 374.734 1402.54 374.546C1401.48 374.738 1400.55 374.738 1399.73 374.586C1398.21 374.306 1397.1 373.506 1396.36 372.362C1395.97 371.763 1395.69 371.072 1395.52 370.318C1395.51 370.286 1395.49 370.254 1395.49 370.222C1395.27 369.358 1395.2 368.456 1395.24 367.538C1393.64 367.864 1392.1 367.774 1390.72 367.113C1389.94 366.742 1389.3 366.273 1388.76 365.731C1387.44 364.381 1386.86 362.611 1386.86 360.658C1386.86 360.47 1386.87 360.282 1386.88 360.093C1386.57 360.146 1386.26 360.185 1385.97 360.21C1384.67 360.305 1383.45 360.095 1382.38 359.442C1381.08 358.65 1380.26 357.347 1379.88 355.742C1379.86 355.701 1379.85 355.659 1379.84 355.613C1379.62 354.749 1379.55 353.848 1379.6 352.929C1377.99 353.256 1376.45 353.165 1375.08 352.505C1374.3 352.134 1373.65 351.665 1373.11 351.122C1371.79 349.773 1371.21 348.003 1371.21 346.05C1371.21 345.857 1371.22 345.659 1371.23 345.461C1370.41 345.595 1369.66 345.612 1368.97 345.531C1367.53 345.354 1366.38 344.725 1365.55 343.747C1364.76 342.794 1364.29 341.534 1364.16 340.063C1364.01 338.26 1364.38 336.113 1365.31 333.826C1365.9 332.364 1366.73 330.919 1367.78 329.619C1368.76 328.418 1369.92 327.346 1371.25 326.497C1371.88 326.098 1372.68 326.29 1373.04 326.928C1373.39 327.567 1373.17 328.403 1372.54 328.802C1371.46 329.484 1370.52 330.353 1369.74 331.316C1368.88 332.378 1368.2 333.569 1367.71 334.78C1366.95 336.643 1366.64 338.331 1366.76 339.694C1366.84 340.605 1367.1 341.357 1367.55 341.886C1367.98 342.389 1368.6 342.714 1369.41 342.811C1370.07 342.89 1370.84 342.824 1371.74 342.586C1371.96 341.825 1372.24 341.06 1372.58 340.305C1373.57 338.07 1375.05 335.887 1376.75 334.102C1380.27 330.418 1382.7 328.712 1384.16 328.32C1385.88 327.864 1386.79 328.564 1386.99 330.054C1387.11 330.929 1386.81 332.146 1386.16 333.504C1384.46 337.031 1380.04 342.207 1374.03 344.647L1373.93 344.686C1373.86 345.109 1373.83 345.519 1373.83 345.914C1373.83 347.182 1374.18 348.305 1374.99 349.129C1375.32 349.473 1375.75 349.769 1376.26 350.017C1377.34 350.537 1378.66 350.483 1380.07 350.042C1380.25 349.387 1380.48 348.729 1380.74 348.073C1381.01 347.369 1381.33 346.662 1381.71 345.971C1382.9 343.685 1384.47 341.524 1386.06 339.752C1387.26 338.414 1388.48 337.291 1389.55 336.487C1390.78 335.575 1391.91 335.04 1392.77 335.011C1393.55 334.983 1394.15 335.277 1394.54 335.922C1395.2 337.015 1395.04 338.547 1394.28 340.26C1393.54 341.925 1392.19 343.869 1390.5 345.727C1388.84 347.556 1386.84 349.323 1384.76 350.662C1383.96 351.175 1383.16 351.623 1382.34 351.991C1382.27 352.518 1382.24 353.032 1382.25 353.52C1382.28 355.142 1382.77 356.453 1383.77 357.067C1384.37 357.427 1385.1 357.544 1385.9 357.481C1386.37 357.445 1386.87 357.351 1387.38 357.209C1387.6 356.444 1387.88 355.678 1388.22 354.914C1389.22 352.678 1390.69 350.496 1392.4 348.711C1395.92 345.022 1398.35 343.312 1399.81 342.924C1401.52 342.468 1402.43 343.168 1402.63 344.658C1402.75 345.533 1402.46 346.75 1401.8 348.108C1400.1 351.635 1395.68 356.811 1389.67 359.251L1389.57 359.291C1389.51 359.713 1389.48 360.123 1389.47 360.518C1389.48 361.786 1389.82 362.909 1390.63 363.733C1390.97 364.077 1391.39 364.373 1391.9 364.621C1392.99 365.142 1394.3 365.087 1395.71 364.647C1395.78 364.393 1395.86 364.139 1395.94 363.885C1396.31 362.701 1396.8 361.503 1397.41 360.374ZM1384.13 346.877C1384.1 346.977 1384.06 347.079 1384 347.176C1383.77 347.595 1383.57 348.013 1383.39 348.433L1383.46 348.381C1385.33 347.183 1387.14 345.584 1388.65 343.92C1390.14 342.281 1391.31 340.607 1391.93 339.214C1392.18 338.638 1392.34 338.163 1392.37 337.832C1392.03 337.972 1391.56 338.261 1391.01 338.673C1390.07 339.369 1389 340.36 1387.93 341.549C1386.56 343.095 1385.18 344.947 1384.13 346.877ZM1374.99 341.258C1379.36 338.912 1382.54 335.077 1383.84 332.37C1384.09 331.856 1384.26 331.417 1384.35 331.078C1383.24 331.555 1381.37 333.041 1378.57 335.973C1377.11 337.502 1375.85 339.361 1374.99 341.258ZM1390.64 355.872C1395.01 353.526 1398.19 349.69 1399.49 346.983C1399.74 346.469 1399.91 346.031 1400 345.691C1398.89 346.169 1397.02 347.654 1394.22 350.586C1392.77 352.115 1391.5 353.974 1390.64 355.872ZM1398.99 363.073C1399.04 363.046 1399.08 363.02 1399.12 362.994C1400.98 361.795 1402.8 360.196 1404.31 358.532C1405.79 356.894 1406.96 355.22 1407.58 353.826C1407.84 353.25 1408 352.775 1408.02 352.445C1407.68 352.584 1407.22 352.874 1406.67 353.286C1405.73 353.982 1404.66 354.973 1403.59 356.161C1401.83 358.123 1400.09 360.586 1398.99 363.073ZM1406.3 370.324C1410.68 367.978 1413.85 364.142 1415.16 361.436C1415.4 360.921 1415.58 360.483 1415.66 360.144C1414.55 360.621 1412.68 362.107 1409.89 365.039C1408.43 366.567 1407.16 368.426 1406.3 370.324Z" fill="black"/>
</g>
<defs>
<clipPath id="clip0">
<rect width="91.4398" height="98.4561" fill="white" transform="matrix(0.17279 -0.984959 0.984947 0.172854 69.3992 283.877)"/>
</clipPath>
<clipPath id="clip1">
<rect width="96.334" height="103.725" fill="white" transform="matrix(0.0758091 0.997122 -0.99712 0.0758379 1420.03 716.324)"/>
</clipPath>
</defs>
</svg>
