<svg width="534" height="534" viewBox="0 0 534 534" fill="none" xmlns="http://www.w3.org/2000/svg">
<rect width="534" height="534" fill="#C4C4C4"/>
<path opacity="0.42" d="M157.351 338.783C155.503 338.783 153.941 338.453 152.665 337.793C151.389 337.133 150.377 336.253 149.629 335.153C148.881 334.031 148.331 332.766 147.979 331.358C147.649 329.95 147.484 328.498 147.484 327.002V315.188H149.761V327.002C149.761 328.212 149.882 329.4 150.124 330.566C150.388 331.732 150.806 332.777 151.378 333.701C151.95 334.625 152.72 335.362 153.688 335.912C154.656 336.44 155.866 336.704 157.318 336.704C158.814 336.704 160.046 336.429 161.014 335.879C162.004 335.307 162.774 334.559 163.324 333.635C163.896 332.711 164.303 331.677 164.545 330.533C164.787 329.367 164.908 328.19 164.908 327.002V315.188H167.218V327.002C167.218 328.564 167.042 330.06 166.69 331.49C166.338 332.92 165.766 334.174 164.974 335.252C164.204 336.33 163.192 337.188 161.938 337.826C160.684 338.464 159.155 338.783 157.351 338.783ZM172.726 338.618V315.188H182.428C183.44 315.188 184.364 315.397 185.2 315.815C186.058 316.233 186.795 316.805 187.411 317.531C188.027 318.235 188.511 319.027 188.863 319.907C189.215 320.765 189.391 321.645 189.391 322.547C189.391 323.823 189.105 325.033 188.533 326.177C187.983 327.299 187.202 328.212 186.19 328.916C185.178 329.62 183.99 329.972 182.626 329.972H175.036V338.618H172.726ZM175.036 327.926H182.527C183.451 327.926 184.254 327.673 184.936 327.167C185.618 326.661 186.146 326.001 186.52 325.187C186.894 324.373 187.081 323.493 187.081 322.547C187.081 321.579 186.861 320.688 186.421 319.874C185.981 319.06 185.398 318.422 184.672 317.96C183.968 317.476 183.187 317.234 182.329 317.234H175.036V327.926ZM193.254 338.618V315.188H195.564V336.572H209.094V338.618H193.254ZM220.997 338.783C219.347 338.783 217.851 338.453 216.509 337.793C215.167 337.133 214.012 336.242 213.044 335.12C212.076 333.976 211.328 332.7 210.8 331.292C210.272 329.862 210.008 328.399 210.008 326.903C210.008 325.341 210.283 323.856 210.833 322.448C211.383 321.018 212.153 319.753 213.143 318.653C214.155 317.531 215.332 316.651 216.674 316.013C218.016 315.353 219.468 315.023 221.03 315.023C222.68 315.023 224.176 315.364 225.518 316.046C226.86 316.728 228.004 317.641 228.95 318.785C229.918 319.929 230.666 321.205 231.194 322.613C231.722 324.021 231.986 325.462 231.986 326.936C231.986 328.498 231.711 329.994 231.161 331.424C230.611 332.832 229.841 334.097 228.851 335.219C227.861 336.319 226.695 337.188 225.353 337.826C224.011 338.464 222.559 338.783 220.997 338.783ZM212.318 326.903C212.318 328.179 212.527 329.411 212.945 330.599C213.363 331.765 213.957 332.81 214.727 333.734C215.497 334.636 216.41 335.362 217.466 335.912C218.544 336.44 219.721 336.704 220.997 336.704C222.339 336.704 223.538 336.429 224.594 335.879C225.672 335.307 226.585 334.559 227.333 333.635C228.103 332.689 228.686 331.633 229.082 330.467C229.478 329.301 229.676 328.113 229.676 326.903C229.676 325.627 229.467 324.406 229.049 323.24C228.631 322.074 228.026 321.029 227.234 320.105C226.464 319.181 225.551 318.455 224.495 317.927C223.439 317.399 222.273 317.135 220.997 317.135C219.677 317.135 218.478 317.41 217.4 317.96C216.344 318.51 215.431 319.258 214.661 320.204C213.913 321.128 213.33 322.173 212.912 323.339C212.516 324.505 212.318 325.693 212.318 326.903ZM242.731 315.188H244.678L254.413 338.618H251.971L248.935 331.292H238.408L235.405 338.618H232.93L242.731 315.188ZM248.407 329.477L243.688 317.894L238.903 329.477H248.407ZM257.771 338.618V315.188H265.724C268.21 315.188 270.278 315.716 271.928 316.772C273.6 317.806 274.854 319.214 275.69 320.996C276.526 322.756 276.944 324.714 276.944 326.87C276.944 329.246 276.482 331.314 275.558 333.074C274.656 334.834 273.358 336.198 271.664 337.166C269.992 338.134 268.012 338.618 265.724 338.618H257.771ZM274.634 326.87C274.634 325 274.282 323.339 273.578 321.887C272.896 320.435 271.895 319.302 270.575 318.488C269.255 317.652 267.638 317.234 265.724 317.234H260.081V336.572H265.724C267.66 336.572 269.288 336.143 270.608 335.285C271.928 334.427 272.929 333.272 273.611 331.82C274.293 330.346 274.634 328.696 274.634 326.87ZM289.772 338.618V315.188H292.082V338.618H289.772ZM318.715 338.618V319.544L310.234 334.361H308.782L300.268 319.544V338.618H297.958V315.188H300.334L309.475 331.226L318.682 315.188H321.025V338.618H318.715ZM334.157 315.188H336.104L345.839 338.618H343.397L340.361 331.292H329.834L326.831 338.618H324.356L334.157 315.188ZM339.833 329.477L335.114 317.894L330.329 329.477H339.833ZM357.733 338.783C356.171 338.783 354.719 338.453 353.377 337.793C352.035 337.111 350.869 336.198 349.879 335.054C348.889 333.91 348.119 332.634 347.569 331.226C347.041 329.818 346.777 328.366 346.777 326.87C346.777 325.286 347.041 323.79 347.569 322.382C348.119 320.952 348.878 319.687 349.846 318.587C350.814 317.487 351.958 316.618 353.278 315.98C354.598 315.342 356.039 315.023 357.601 315.023C359.911 315.023 361.792 315.496 363.244 316.442C364.696 317.388 365.796 318.62 366.544 320.138L364.762 321.326C364.014 319.874 363.013 318.807 361.759 318.125C360.505 317.443 359.108 317.102 357.568 317.102C356.27 317.102 355.093 317.377 354.037 317.927C353.003 318.477 352.112 319.214 351.364 320.138C350.616 321.062 350.044 322.107 349.648 323.273C349.274 324.439 349.087 325.649 349.087 326.903C349.087 328.223 349.307 329.477 349.747 330.665C350.187 331.831 350.814 332.876 351.628 333.8C352.442 334.702 353.377 335.417 354.433 335.945C355.511 336.451 356.666 336.704 357.898 336.704C359.328 336.704 360.681 336.352 361.957 335.648C363.233 334.922 364.454 333.811 365.62 332.315V334.757C363.398 337.441 360.769 338.783 357.733 338.783ZM365.257 328.883H360.043V327.101H367.204V338.618H365.257V328.883ZM387.691 336.572V338.618H371.95V315.188H387.394V317.234H374.26V325.682H385.711V327.629H374.26V336.572H387.691Z" fill="black"/>
<path opacity="0.35" d="M256.864 187.333L247.531 196.667H229.667V252.667H304.333V196.667H286.469L277.136 187.333H256.864ZM253 178H281L290.333 187.333H309C310.238 187.333 311.425 187.825 312.3 188.7C313.175 189.575 313.667 190.762 313.667 192V257.333C313.667 258.571 313.175 259.758 312.3 260.633C311.425 261.508 310.238 262 309 262H225C223.762 262 222.575 261.508 221.7 260.633C220.825 259.758 220.333 258.571 220.333 257.333V192C220.333 190.762 220.825 189.575 221.7 188.7C222.575 187.825 223.762 187.333 225 187.333H243.667L253 178ZM267 248C260.193 248 253.664 245.296 248.851 240.482C244.037 235.669 241.333 229.141 241.333 222.333C241.333 215.526 244.037 208.998 248.851 204.184C253.664 199.371 260.193 196.667 267 196.667C273.807 196.667 280.336 199.371 285.149 204.184C289.963 208.998 292.667 215.526 292.667 222.333C292.667 229.141 289.963 235.669 285.149 240.482C280.336 245.296 273.807 248 267 248ZM267 238.667C271.332 238.667 275.486 236.946 278.549 233.883C281.613 230.82 283.333 226.665 283.333 222.333C283.333 218.001 281.613 213.847 278.549 210.784C275.486 207.721 271.332 206 267 206C262.668 206 258.514 207.721 255.451 210.784C252.387 213.847 250.667 218.001 250.667 222.333C250.667 226.665 252.387 230.82 255.451 233.883C258.514 236.946 262.668 238.667 267 238.667V238.667Z" fill="black"/>
</svg>
