<svg width="146" height="29" viewBox="0 0 146 29" fill="none" xmlns="http://www.w3.org/2000/svg">
<g clip-path="url(#clip0_298:3285)">
<path d="M13.7812 -0.919617V36.6519" stroke="black" stroke-width="2"/>
<path d="M13.7813 17.0521L2.95573 6.95714" stroke="black" stroke-width="2"/>
<path d="M13.6539 8.35516L8.16335 3.29397" stroke="black" stroke-width="2"/>
<path d="M13.6539 24.9196L1.30487 13.4039" stroke="black" stroke-width="2"/>
</g>
<rect x="1" y="1" width="27" height="27" rx="13.5" stroke="black" stroke-width="2"/>
<path d="M62.9634 7.132C62.8654 8.462 62.8164 9.652 62.8164 10.702C62.8164 11.36 62.8374 11.892 62.8794 12.298H62.3964C62.0604 10.576 61.5984 9.365 61.0104 8.665C60.4364 7.965 59.6454 7.615 58.6374 7.615H58.1544V19.606C58.1544 20.194 58.2104 20.621 58.3224 20.887C58.4484 21.153 58.6584 21.335 58.9524 21.433C59.2604 21.517 59.7434 21.566 60.4014 21.58V22C58.6374 21.958 57.3074 21.937 56.4114 21.937C55.5294 21.937 54.2484 21.958 52.5684 22V21.58C53.2264 21.566 53.7024 21.517 53.9964 21.433C54.3044 21.335 54.5144 21.153 54.6264 20.887C54.7524 20.621 54.8154 20.194 54.8154 19.606V7.615H54.3534C53.6814 7.615 53.1074 7.762 52.6314 8.056C52.1694 8.35 51.7704 8.84 51.4344 9.526C51.0984 10.198 50.8114 11.122 50.5734 12.298H50.0904C50.1324 11.892 50.1534 11.36 50.1534 10.702C50.1534 9.652 50.1044 8.462 50.0064 7.132C51.2804 7.174 53.4434 7.195 56.4954 7.195C59.5474 7.195 61.7034 7.174 62.9634 7.132ZM68.1527 12.802C68.7827 11.5 69.9237 10.849 71.5757 10.849C72.6677 10.849 73.4377 11.122 73.8857 11.668C74.1237 11.934 74.2917 12.284 74.3897 12.718C74.5017 13.138 74.5577 13.698 74.5577 14.398V20.047C74.5577 20.621 74.6557 21.02 74.8517 21.244C75.0477 21.454 75.3977 21.559 75.9017 21.559V22C74.4457 21.944 73.5217 21.916 73.1297 21.916C72.6537 21.916 71.7437 21.944 70.3997 22V21.559C70.8197 21.559 71.1137 21.454 71.2817 21.244C71.4497 21.02 71.5337 20.621 71.5337 20.047V13.516C71.5337 12.942 71.4357 12.508 71.2397 12.214C71.0577 11.92 70.7217 11.773 70.2317 11.773C69.6437 11.773 69.1467 12.004 68.7407 12.466C68.3487 12.914 68.1527 13.488 68.1527 14.188V20.047C68.1527 20.621 68.2367 21.02 68.4047 21.244C68.5727 21.454 68.8667 21.559 69.2867 21.559V22C67.9427 21.944 67.0747 21.916 66.6827 21.916C66.2067 21.916 65.2407 21.944 63.7847 22V21.559C64.2747 21.559 64.6177 21.454 64.8137 21.244C65.0237 21.02 65.1287 20.621 65.1287 20.047V8.098C65.1287 7.454 65.0237 6.985 64.8137 6.691C64.6177 6.397 64.2747 6.25 63.7847 6.25V5.809C64.2327 5.851 64.6667 5.872 65.0867 5.872C66.3047 5.872 67.3267 5.774 68.1527 5.578V12.802ZM79.3961 5.725C79.9841 5.725 80.4461 5.872 80.7821 6.166C81.1321 6.446 81.3071 6.838 81.3071 7.342C81.3071 7.846 81.1321 8.245 80.7821 8.539C80.4461 8.819 79.9841 8.959 79.3961 8.959C78.8081 8.959 78.3391 8.819 77.9891 8.539C77.6531 8.245 77.4851 7.846 77.4851 7.342C77.4851 6.838 77.6531 6.446 77.9891 6.166C78.3391 5.872 78.8081 5.725 79.3961 5.725ZM81.0341 20.047C81.0341 20.621 81.1321 21.02 81.3281 21.244C81.5381 21.454 81.8881 21.559 82.3781 21.559V22C80.9781 21.944 80.0471 21.916 79.5851 21.916C79.1511 21.916 78.1781 21.944 76.6661 22V21.559C77.1701 21.559 77.5201 21.454 77.7161 21.244C77.9121 21.02 78.0101 20.621 78.0101 20.047V13.432C78.0101 12.788 77.9121 12.319 77.7161 12.025C77.5201 11.731 77.1701 11.584 76.6661 11.584V11.143C77.1141 11.185 77.5481 11.206 77.9681 11.206C79.2141 11.206 80.2361 11.108 81.0341 10.912V20.047ZM90.5141 10.849C91.1441 10.849 91.6201 11.038 91.9421 11.416C92.2641 11.794 92.4251 12.249 92.4251 12.781C92.4251 13.299 92.2711 13.726 91.9631 14.062C91.6691 14.384 91.2771 14.545 90.7871 14.545C90.3111 14.545 89.9331 14.426 89.6531 14.188C89.3731 13.936 89.2331 13.607 89.2331 13.201C89.2331 12.529 89.5411 11.983 90.1571 11.563C90.1011 11.549 90.0171 11.542 89.9051 11.542C89.7651 11.542 89.6531 11.556 89.5691 11.584C89.0371 11.668 88.5821 11.99 88.2041 12.55C87.8401 13.11 87.6581 13.684 87.6581 14.272V19.837C87.6581 20.481 87.8121 20.929 88.1201 21.181C88.4421 21.433 88.9461 21.559 89.6321 21.559V22C89.4361 22 89.2751 21.993 89.1491 21.979C87.7211 21.937 86.7691 21.916 86.2931 21.916C85.9151 21.916 85.0541 21.937 83.7101 21.979C83.5981 21.993 83.4581 22 83.2901 22V21.559C83.7941 21.559 84.1441 21.454 84.3401 21.244C84.5361 21.02 84.6341 20.621 84.6341 20.047V13.432C84.6341 12.788 84.5361 12.319 84.3401 12.025C84.1441 11.731 83.7941 11.584 83.2901 11.584V11.143C83.7381 11.185 84.1721 11.206 84.5921 11.206C85.8381 11.206 86.8601 11.108 87.6581 10.912V12.865C87.9241 12.263 88.3091 11.78 88.8131 11.416C89.3171 11.038 89.8841 10.849 90.5141 10.849ZM103.138 19.69C103.138 20.334 103.236 20.803 103.432 21.097C103.628 21.391 103.978 21.538 104.482 21.538V21.979C104.048 21.937 103.614 21.916 103.18 21.916C101.934 21.916 100.912 22.014 100.114 22.21V20.404C99.6378 21.664 98.7278 22.294 97.3838 22.294C96.0678 22.294 95.0178 21.818 94.2338 20.866C93.4638 19.9 93.0858 18.451 93.0998 16.519C93.0998 15.287 93.2958 14.251 93.6878 13.411C94.0938 12.557 94.6468 11.92 95.3468 11.5C96.0608 11.066 96.8728 10.849 97.7828 10.849C98.8048 10.849 99.5818 11.115 100.114 11.647V8.077C100.114 7.433 100.009 6.964 99.7988 6.67C99.6028 6.376 99.2598 6.229 98.7698 6.229V5.788C99.2178 5.83 99.6518 5.851 100.072 5.851C101.29 5.851 102.312 5.753 103.138 5.557V19.69ZM98.2448 21.391C98.7068 21.391 99.1128 21.223 99.4628 20.887C99.8268 20.551 100.044 20.096 100.114 19.522V12.172C99.7638 11.696 99.2528 11.458 98.5808 11.458C97.8388 11.458 97.2648 11.885 96.8588 12.739C96.4528 13.593 96.2568 14.867 96.2708 16.561C96.2568 18.269 96.4178 19.501 96.7538 20.257C97.1038 21.013 97.6008 21.391 98.2448 21.391ZM109.515 10.849C110.047 10.849 110.537 10.919 110.985 11.059C111.433 11.185 111.776 11.332 112.014 11.5C112.154 11.598 112.28 11.647 112.392 11.647C112.518 11.647 112.623 11.584 112.707 11.458C112.805 11.318 112.868 11.122 112.896 10.87H113.337C113.281 11.584 113.253 12.816 113.253 14.566H112.812C112.686 13.642 112.406 12.872 111.972 12.256C111.552 11.626 110.936 11.311 110.124 11.311C109.704 11.311 109.354 11.43 109.074 11.668C108.808 11.906 108.675 12.235 108.675 12.655C108.675 13.131 108.836 13.544 109.158 13.894C109.48 14.23 109.984 14.643 110.67 15.133L111.279 15.574C112.133 16.218 112.763 16.792 113.169 17.296C113.575 17.8 113.778 18.43 113.778 19.186C113.778 19.802 113.596 20.348 113.232 20.824C112.882 21.3 112.406 21.664 111.804 21.916C111.202 22.168 110.537 22.294 109.809 22.294C109.039 22.294 108.381 22.147 107.835 21.853C107.387 21.629 107.065 21.482 106.869 21.412C106.729 21.37 106.603 21.419 106.491 21.559C106.393 21.685 106.316 21.881 106.26 22.147H105.819C105.875 21.349 105.903 19.949 105.903 17.947H106.344C106.624 20.523 107.569 21.811 109.179 21.811C109.585 21.811 109.928 21.692 110.208 21.454C110.502 21.202 110.649 20.824 110.649 20.32C110.649 19.928 110.558 19.578 110.376 19.27C110.208 18.962 109.991 18.689 109.725 18.451C109.459 18.213 109.06 17.884 108.528 17.464C107.898 16.96 107.415 16.554 107.079 16.246C106.757 15.938 106.477 15.574 106.239 15.154C106.015 14.734 105.903 14.265 105.903 13.747C105.903 12.851 106.253 12.144 106.953 11.626C107.653 11.108 108.507 10.849 109.515 10.849ZM117.787 5.725C118.375 5.725 118.837 5.872 119.173 6.166C119.523 6.446 119.698 6.838 119.698 7.342C119.698 7.846 119.523 8.245 119.173 8.539C118.837 8.819 118.375 8.959 117.787 8.959C117.199 8.959 116.73 8.819 116.38 8.539C116.044 8.245 115.876 7.846 115.876 7.342C115.876 6.838 116.044 6.446 116.38 6.166C116.73 5.872 117.199 5.725 117.787 5.725ZM119.425 20.047C119.425 20.621 119.523 21.02 119.719 21.244C119.929 21.454 120.279 21.559 120.769 21.559V22C119.369 21.944 118.438 21.916 117.976 21.916C117.542 21.916 116.569 21.944 115.057 22V21.559C115.561 21.559 115.911 21.454 116.107 21.244C116.303 21.02 116.401 20.621 116.401 20.047V13.432C116.401 12.788 116.303 12.319 116.107 12.025C115.911 11.731 115.561 11.584 115.057 11.584V11.143C115.505 11.185 115.939 11.206 116.359 11.206C117.605 11.206 118.627 11.108 119.425 10.912V20.047ZM132.013 19.69C132.013 20.334 132.111 20.803 132.307 21.097C132.503 21.391 132.853 21.538 133.357 21.538V21.979C132.923 21.937 132.489 21.916 132.055 21.916C130.809 21.916 129.787 22.014 128.989 22.21V20.404C128.513 21.664 127.603 22.294 126.259 22.294C124.943 22.294 123.893 21.818 123.109 20.866C122.339 19.9 121.961 18.451 121.975 16.519C121.975 15.287 122.171 14.251 122.563 13.411C122.969 12.557 123.522 11.92 124.222 11.5C124.936 11.066 125.748 10.849 126.658 10.849C127.68 10.849 128.457 11.115 128.989 11.647V8.077C128.989 7.433 128.884 6.964 128.674 6.67C128.478 6.376 128.135 6.229 127.645 6.229V5.788C128.093 5.83 128.527 5.851 128.947 5.851C130.165 5.851 131.187 5.753 132.013 5.557V19.69ZM127.12 21.391C127.582 21.391 127.988 21.223 128.338 20.887C128.702 20.551 128.919 20.096 128.989 19.522V12.172C128.639 11.696 128.128 11.458 127.456 11.458C126.714 11.458 126.14 11.885 125.734 12.739C125.328 13.593 125.132 14.867 125.146 16.561C125.132 18.269 125.293 19.501 125.629 20.257C125.979 21.013 126.476 21.391 127.12 21.391ZM140.406 20.572C141.554 20.572 142.478 20.012 143.178 18.892L143.556 19.018C143.276 19.928 142.772 20.705 142.044 21.349C141.33 21.979 140.434 22.294 139.356 22.294C137.872 22.294 136.689 21.825 135.807 20.887C134.939 19.935 134.505 18.535 134.505 16.687C134.505 14.797 134.974 13.355 135.912 12.361C136.85 11.353 138.096 10.849 139.65 10.849C142.282 10.849 143.598 12.403 143.598 15.511H137.697C137.683 15.721 137.676 16.05 137.676 16.498C137.676 17.422 137.802 18.192 138.054 18.808C138.32 19.424 138.656 19.872 139.062 20.152C139.482 20.432 139.93 20.572 140.406 20.572ZM139.524 11.29C139.02 11.29 138.6 11.605 138.264 12.235C137.942 12.851 137.739 13.81 137.655 15.112H140.952C140.98 14.006 140.868 13.096 140.616 12.382C140.378 11.654 140.014 11.29 139.524 11.29Z" fill="#151515"/>
<defs>
<clipPath id="clip0_298:3285">
</clipPath>
</defs>
</svg>
