<svg width="23" height="23" viewBox="0 0 23 23" fill="none" xmlns="http://www.w3.org/2000/svg">
<path d="M12.5983 0.484863C9.97377 0.484863 7.45672 1.52746 5.60089 3.38329C3.74507 5.23911 2.70247 7.75616 2.70247 10.3807C2.70007 11.9191 3.05788 13.4367 3.74726 14.8119L1.18164 17.3786C0.986359 17.574 0.876654 17.8389 0.876654 18.1151C0.876654 18.3913 0.986359 18.6562 1.18164 18.8515L4.12747 21.7974C4.32281 21.9926 4.58772 22.1024 4.86393 22.1024C5.14014 22.1024 5.40505 21.9926 5.60039 21.7974L8.16706 19.2317C9.54234 19.9211 11.0599 20.2789 12.5983 20.2765C15.2228 20.2765 17.7399 19.2339 19.5957 17.3781C21.4515 15.5223 22.4941 13.0052 22.4941 10.3807C22.4941 7.75616 21.4515 5.23911 19.5957 3.38329C17.7399 1.52746 15.2228 0.484863 12.5983 0.484863ZM7.07435 14.4307L8.54727 15.9036L4.86393 19.5859L3.39101 18.113L7.07435 14.4307ZM5.13268 8.07132L14.9077 17.8463C14.1785 18.0713 13.4025 18.1932 12.5983 18.1932C11.6216 18.1945 10.6534 18.0122 9.74414 17.6557L10.7566 16.6411C10.9519 16.4458 11.0616 16.1809 11.0616 15.9047C11.0616 15.6284 10.9519 15.3635 10.7566 15.1682L7.81081 12.2224C7.61546 12.0271 7.35056 11.9174 7.07435 11.9174C6.79814 11.9174 6.53323 12.0271 6.33789 12.2224L5.32331 13.2349C4.96684 12.3256 4.78451 11.3574 4.78581 10.3807C4.78581 9.57653 4.90768 8.80153 5.13268 8.07132ZM12.5983 2.5682C14.2778 2.56802 15.9127 3.10908 17.2605 4.11115C18.6083 5.11323 19.5973 6.52297 20.0808 8.13135C20.5644 9.73974 20.5167 11.4611 19.945 13.0403C19.3732 14.6195 18.3078 15.9724 16.9066 16.8984L6.0806 6.07236C6.79228 4.99464 7.76026 4.11036 8.89778 3.49878C10.0353 2.88721 11.3068 2.56746 12.5983 2.5682Z" fill="#151515"/>
</svg>
