<svg width="400" height="444" viewBox="0 0 400 444" fill="none" xmlns="http://www.w3.org/2000/svg">
<path d="M128.482 253.865C132.084 253.41 142.121 250.163 153.449 240.823C167.609 229.147 174.44 240.823 178.043 240.823C181.645 240.823 188.725 235.482 196.675 238.835C204.624 242.189 218.909 263.057 229.839 262.187C231.627 262.045 232.023 262.541 231.391 263.465M128.482 253.865C130.718 260.448 137.922 269.143 142.518 273.366C147.114 277.59 156.554 279.08 163.137 279.204C169.72 279.329 180.03 282.31 189.843 283.303C198.051 284.135 228.16 268.192 231.391 263.465M128.482 253.865C135.438 254.279 151.064 254.685 157.92 252.996C166.491 250.884 172.205 256.101 177.173 257.591C182.142 259.082 190.091 254.486 195.557 255.728C201.022 256.97 213.443 264.299 217.791 264.547C222.138 264.796 227.974 266.109 231.391 263.465" stroke="#A78626" stroke-width="4"/>
<path d="M167.733 207.782C162.847 207.824 154.541 206.813 160.404 202.441C167.733 196.976 177.173 214.986 182.887 213.123C188.601 211.26 197.047 200.578 204.003 204.18C210.959 207.782 196.923 212.999 190.712 211.881" stroke="#A78626" stroke-width="4"/>
<path d="M304.46 220.033C317.866 220.033 330.267 197.44 321.013 156.045C318.723 145.804 310.101 133.21 306.47 124.177C303.845 117.649 304.317 106.78 298.847 100.697C283.397 83.5185 271.559 70.7766 278.096 58.4258C291.96 32.2319 298.81 57.5698 301.207 59.6241C302.93 61.1009 330.575 103.716 347 130.231M354.62 266.084C353.422 267.111 352.086 258.312 356.332 214.897C361.639 160.629 361.639 157.718 358.9 150.528C358.13 148.507 353.423 140.6 347 130.231M354.62 266.084C362.426 260.654 376.695 245.221 376.83 225.871M354.62 266.084C341.982 287.896 316.998 334.908 318.17 348.464C319.634 365.409 328.421 436.538 331.977 441.977M344.377 22.69C346.743 9.84983 355.457 8.45206 363.085 9.61571C367.706 10.3205 380.411 70.3843 395.535 94.8901C401.93 105.251 393.228 147.789 392.543 150.528C391.858 153.267 381.654 202.424 378.073 225.169C378.047 225.337 376.831 225.702 376.83 225.871M344.377 22.69L333.356 2.29611C325.517 1.8027 310.496 6.27612 313.127 28.1171C314.82 42.17 323.489 45.8793 331.383 65.7796C339.277 85.6798 336.166 86.9609 345.691 103.113C353.257 115.941 350.949 127.387 347 130.231M344.377 22.69C343.406 27.9555 353.672 42.0421 366.68 68.0474C372.392 79.4679 382.481 95.4701 385.533 107.687C397.126 154.102 367.611 187.421 376.83 225.871" stroke="#A78626" stroke-width="4"/>
<path d="M12.055 288.369C4.57785 290.625 1.22962 280.879 2.43069 277.432C13.8125 244.77 10.3251 237.129 11.8601 206.347C12.2269 198.993 15.3414 190.123 15.8906 182.825C16.7977 170.771 14.2599 159.135 17.0934 153.78C31.1025 127.302 24.3928 119.218 29.3613 108.488C35.3202 95.6186 40.0718 65.4374 41.7528 47.5991C47.9334 46.8421 60.6241 49.1564 61.9424 64.4696M12.055 288.369C12.4129 292.519 17.0274 300.911 32.6221 301.279M12.055 288.369C14.5934 272.604 18.851 219.801 17.0934 209.915C14.8964 197.557 26.7544 143.646 34.6763 126.24C45.0027 103.551 49.824 70.8882 49.9559 67.1946C50.049 64.5863 57.381 63.7768 61.9424 64.4696M32.6221 301.279C52.1154 301.739 99.7689 343.242 102.94 346.125C106.112 349.008 119.375 347.567 123.7 395.429M32.6221 301.279C29.401 295.86 23.2164 285.181 29.6886 275.832C37.7788 264.146 34.8696 221.649 33.6336 218.952C32.3975 216.256 35.2777 182.532 41.0144 173.026C47.3668 162.5 40.7474 147.911 49.8199 131.177C54.1269 123.233 44.9519 106.904 62.2712 108.488M62.2712 108.488C61.04 106.685 59.5802 100.995 63.5903 92.6584C67.6005 84.3214 65.2612 70.6288 63.5903 64.8246C63.1056 64.6803 62.5484 64.5617 61.9424 64.4696M62.2712 108.488C65.6314 111.74 71.1019 122.224 66.1021 138.144C61.7789 151.91 69.3914 164.964 69.3914 175.258C69.3914 182.538 66.9513 187.094 66.9513 200.409C66.9513 204.756 69.3217 218.275 69.3914 223.988C69.4534 229.063 67.2378 235.738 69.3914 241.264C73.4137 251.585 75.335 266.256 90.5305 277.26C101.016 284.853 111.988 296.712 120.705 313.159C131.645 333.802 189.676 351.608 221.028 329.746C250.788 308.993 263.216 290.857 267.145 288.892C271.075 286.928 291.46 263.35 280.653 244.93C263.154 215.101 242.831 198.021 225.885 186.477C208.938 174.934 202.625 148.812 216.378 140.167C223.501 135.689 223.437 152.656 293.691 200.331C306.662 209.134 288.635 205.92 334.405 273.245C340.336 281.968 326.592 303.454 312.052 314.492" stroke="#A78626" stroke-width="4"/>
</svg>
