<svg width="94" height="18" viewBox="0 0 94 18" fill="none" xmlns="http://www.w3.org/2000/svg">
<path d="M12.9634 2.132C12.8654 3.462 12.8164 4.652 12.8164 5.702C12.8164 6.36 12.8374 6.892 12.8794 7.298H12.3964C12.0604 5.576 11.5984 4.365 11.0104 3.665C10.4364 2.965 9.64545 2.615 8.63745 2.615H8.15445V14.606C8.15445 15.194 8.21045 15.621 8.32245 15.887C8.44845 16.153 8.65845 16.335 8.95245 16.433C9.26045 16.517 9.74345 16.566 10.4014 16.58V17C8.63745 16.958 7.30745 16.937 6.41145 16.937C5.52945 16.937 4.24845 16.958 2.56845 17V16.58C3.22645 16.566 3.70245 16.517 3.99645 16.433C4.30445 16.335 4.51445 16.153 4.62645 15.887C4.75245 15.621 4.81545 15.194 4.81545 14.606V2.615H4.35345C3.68145 2.615 3.10745 2.762 2.63145 3.056C2.16945 3.35 1.77045 3.84 1.43445 4.526C1.09845 5.198 0.811445 6.122 0.573445 7.298H0.0904453C0.132445 6.892 0.153445 6.36 0.153445 5.702C0.153445 4.652 0.104445 3.462 0.00644532 2.132C1.28045 2.174 3.44345 2.195 6.49545 2.195C9.54745 2.195 11.7034 2.174 12.9634 2.132ZM18.1527 7.802C18.7827 6.5 19.9237 5.849 21.5757 5.849C22.6677 5.849 23.4377 6.122 23.8857 6.668C24.1237 6.934 24.2917 7.284 24.3897 7.718C24.5017 8.138 24.5577 8.698 24.5577 9.398V15.047C24.5577 15.621 24.6557 16.02 24.8517 16.244C25.0477 16.454 25.3977 16.559 25.9017 16.559V17C24.4457 16.944 23.5217 16.916 23.1297 16.916C22.6537 16.916 21.7437 16.944 20.3997 17V16.559C20.8197 16.559 21.1137 16.454 21.2817 16.244C21.4497 16.02 21.5337 15.621 21.5337 15.047V8.516C21.5337 7.942 21.4357 7.508 21.2397 7.214C21.0577 6.92 20.7217 6.773 20.2317 6.773C19.6437 6.773 19.1467 7.004 18.7407 7.466C18.3487 7.914 18.1527 8.488 18.1527 9.188V15.047C18.1527 15.621 18.2367 16.02 18.4047 16.244C18.5727 16.454 18.8667 16.559 19.2867 16.559V17C17.9427 16.944 17.0747 16.916 16.6827 16.916C16.2067 16.916 15.2407 16.944 13.7847 17V16.559C14.2747 16.559 14.6177 16.454 14.8137 16.244C15.0237 16.02 15.1287 15.621 15.1287 15.047V3.098C15.1287 2.454 15.0237 1.985 14.8137 1.691C14.6177 1.397 14.2747 1.25 13.7847 1.25V0.808999C14.2327 0.851 14.6667 0.872 15.0867 0.872C16.3047 0.872 17.3267 0.773999 18.1527 0.577999V7.802ZM29.3961 0.724999C29.9841 0.724999 30.4461 0.871999 30.7821 1.166C31.1321 1.446 31.3071 1.838 31.3071 2.342C31.3071 2.846 31.1321 3.245 30.7821 3.539C30.4461 3.819 29.9841 3.959 29.3961 3.959C28.8081 3.959 28.3391 3.819 27.9891 3.539C27.6531 3.245 27.4851 2.846 27.4851 2.342C27.4851 1.838 27.6531 1.446 27.9891 1.166C28.3391 0.871999 28.8081 0.724999 29.3961 0.724999ZM31.0341 15.047C31.0341 15.621 31.1321 16.02 31.3281 16.244C31.5381 16.454 31.8881 16.559 32.3781 16.559V17C30.9781 16.944 30.0471 16.916 29.5851 16.916C29.1511 16.916 28.1781 16.944 26.6661 17V16.559C27.1701 16.559 27.5201 16.454 27.7161 16.244C27.9121 16.02 28.0101 15.621 28.0101 15.047V8.432C28.0101 7.788 27.9121 7.319 27.7161 7.025C27.5201 6.731 27.1701 6.584 26.6661 6.584V6.143C27.1141 6.185 27.5481 6.206 27.9681 6.206C29.2141 6.206 30.2361 6.108 31.0341 5.912V15.047ZM40.5141 5.849C41.1441 5.849 41.6201 6.038 41.9421 6.416C42.2641 6.794 42.4251 7.249 42.4251 7.781C42.4251 8.299 42.2711 8.726 41.9631 9.062C41.6691 9.384 41.2771 9.545 40.7871 9.545C40.3111 9.545 39.9331 9.426 39.6531 9.188C39.3731 8.936 39.2331 8.607 39.2331 8.201C39.2331 7.529 39.5411 6.983 40.1571 6.563C40.1011 6.549 40.0171 6.542 39.9051 6.542C39.7651 6.542 39.6531 6.556 39.5691 6.584C39.0371 6.668 38.5821 6.99 38.2041 7.55C37.8401 8.11 37.6581 8.684 37.6581 9.272V14.837C37.6581 15.481 37.8121 15.929 38.1201 16.181C38.4421 16.433 38.9461 16.559 39.6321 16.559V17C39.4361 17 39.2751 16.993 39.1491 16.979C37.7211 16.937 36.7691 16.916 36.2931 16.916C35.9151 16.916 35.0541 16.937 33.7101 16.979C33.5981 16.993 33.4581 17 33.2901 17V16.559C33.7941 16.559 34.1441 16.454 34.3401 16.244C34.5361 16.02 34.6341 15.621 34.6341 15.047V8.432C34.6341 7.788 34.5361 7.319 34.3401 7.025C34.1441 6.731 33.7941 6.584 33.2901 6.584V6.143C33.7381 6.185 34.1721 6.206 34.5921 6.206C35.8381 6.206 36.8601 6.108 37.6581 5.912V7.865C37.9241 7.263 38.3091 6.78 38.8131 6.416C39.3171 6.038 39.8841 5.849 40.5141 5.849ZM53.1378 14.69C53.1378 15.334 53.2358 15.803 53.4318 16.097C53.6278 16.391 53.9778 16.538 54.4818 16.538V16.979C54.0478 16.937 53.6138 16.916 53.1798 16.916C51.9338 16.916 50.9118 17.014 50.1138 17.21V15.404C49.6378 16.664 48.7278 17.294 47.3838 17.294C46.0678 17.294 45.0178 16.818 44.2338 15.866C43.4638 14.9 43.0858 13.451 43.0998 11.519C43.0998 10.287 43.2958 9.251 43.6878 8.411C44.0938 7.557 44.6468 6.92 45.3468 6.5C46.0608 6.066 46.8728 5.849 47.7828 5.849C48.8048 5.849 49.5818 6.115 50.1138 6.647V3.077C50.1138 2.433 50.0088 1.964 49.7988 1.67C49.6028 1.376 49.2598 1.229 48.7698 1.229V0.788C49.2178 0.829999 49.6518 0.850999 50.0718 0.850999C51.2898 0.850999 52.3118 0.752999 53.1378 0.556999V14.69ZM48.2448 16.391C48.7068 16.391 49.1128 16.223 49.4628 15.887C49.8268 15.551 50.0438 15.096 50.1138 14.522V7.172C49.7638 6.696 49.2528 6.458 48.5808 6.458C47.8388 6.458 47.2648 6.885 46.8588 7.739C46.4528 8.593 46.2568 9.867 46.2708 11.561C46.2568 13.269 46.4178 14.501 46.7538 15.257C47.1038 16.013 47.6008 16.391 48.2448 16.391ZM59.5145 5.849C60.0465 5.849 60.5365 5.919 60.9845 6.059C61.4325 6.185 61.7755 6.332 62.0135 6.5C62.1535 6.598 62.2795 6.647 62.3915 6.647C62.5175 6.647 62.6225 6.584 62.7065 6.458C62.8045 6.318 62.8675 6.122 62.8955 5.87H63.3365C63.2805 6.584 63.2525 7.816 63.2525 9.566H62.8115C62.6855 8.642 62.4055 7.872 61.9715 7.256C61.5515 6.626 60.9355 6.311 60.1235 6.311C59.7035 6.311 59.3535 6.43 59.0735 6.668C58.8075 6.906 58.6745 7.235 58.6745 7.655C58.6745 8.131 58.8355 8.544 59.1575 8.894C59.4795 9.23 59.9835 9.643 60.6695 10.133L61.2785 10.574C62.1325 11.218 62.7625 11.792 63.1685 12.296C63.5745 12.8 63.7775 13.43 63.7775 14.186C63.7775 14.802 63.5955 15.348 63.2315 15.824C62.8815 16.3 62.4055 16.664 61.8035 16.916C61.2015 17.168 60.5365 17.294 59.8085 17.294C59.0385 17.294 58.3805 17.147 57.8345 16.853C57.3865 16.629 57.0645 16.482 56.8685 16.412C56.7285 16.37 56.6025 16.419 56.4905 16.559C56.3925 16.685 56.3155 16.881 56.2595 17.147H55.8185C55.8745 16.349 55.9025 14.949 55.9025 12.947H56.3435C56.6235 15.523 57.5685 16.811 59.1785 16.811C59.5845 16.811 59.9275 16.692 60.2075 16.454C60.5015 16.202 60.6485 15.824 60.6485 15.32C60.6485 14.928 60.5575 14.578 60.3755 14.27C60.2075 13.962 59.9905 13.689 59.7245 13.451C59.4585 13.213 59.0595 12.884 58.5275 12.464C57.8975 11.96 57.4145 11.554 57.0785 11.246C56.7565 10.938 56.4765 10.574 56.2385 10.154C56.0145 9.734 55.9025 9.265 55.9025 8.747C55.9025 7.851 56.2525 7.144 56.9525 6.626C57.6525 6.108 58.5065 5.849 59.5145 5.849ZM67.7867 0.724999C68.3747 0.724999 68.8367 0.871999 69.1727 1.166C69.5227 1.446 69.6977 1.838 69.6977 2.342C69.6977 2.846 69.5227 3.245 69.1727 3.539C68.8367 3.819 68.3747 3.959 67.7867 3.959C67.1987 3.959 66.7297 3.819 66.3797 3.539C66.0437 3.245 65.8757 2.846 65.8757 2.342C65.8757 1.838 66.0437 1.446 66.3797 1.166C66.7297 0.871999 67.1987 0.724999 67.7867 0.724999ZM69.4247 15.047C69.4247 15.621 69.5227 16.02 69.7187 16.244C69.9287 16.454 70.2787 16.559 70.7687 16.559V17C69.3687 16.944 68.4377 16.916 67.9757 16.916C67.5417 16.916 66.5687 16.944 65.0567 17V16.559C65.5607 16.559 65.9107 16.454 66.1067 16.244C66.3027 16.02 66.4007 15.621 66.4007 15.047V8.432C66.4007 7.788 66.3027 7.319 66.1067 7.025C65.9107 6.731 65.5607 6.584 65.0567 6.584V6.143C65.5047 6.185 65.9387 6.206 66.3587 6.206C67.6047 6.206 68.6267 6.108 69.4247 5.912V15.047ZM82.0128 14.69C82.0128 15.334 82.1108 15.803 82.3068 16.097C82.5028 16.391 82.8528 16.538 83.3568 16.538V16.979C82.9228 16.937 82.4888 16.916 82.0548 16.916C80.8088 16.916 79.7868 17.014 78.9888 17.21V15.404C78.5128 16.664 77.6028 17.294 76.2588 17.294C74.9428 17.294 73.8928 16.818 73.1088 15.866C72.3388 14.9 71.9608 13.451 71.9748 11.519C71.9748 10.287 72.1708 9.251 72.5628 8.411C72.9688 7.557 73.5218 6.92 74.2218 6.5C74.9358 6.066 75.7478 5.849 76.6578 5.849C77.6798 5.849 78.4568 6.115 78.9888 6.647V3.077C78.9888 2.433 78.8838 1.964 78.6738 1.67C78.4778 1.376 78.1348 1.229 77.6448 1.229V0.788C78.0928 0.829999 78.5268 0.850999 78.9468 0.850999C80.1648 0.850999 81.1868 0.752999 82.0128 0.556999V14.69ZM77.1198 16.391C77.5818 16.391 77.9878 16.223 78.3378 15.887C78.7018 15.551 78.9188 15.096 78.9888 14.522V7.172C78.6388 6.696 78.1278 6.458 77.4558 6.458C76.7138 6.458 76.1398 6.885 75.7338 7.739C75.3278 8.593 75.1318 9.867 75.1458 11.561C75.1318 13.269 75.2928 14.501 75.6288 15.257C75.9788 16.013 76.4758 16.391 77.1198 16.391ZM90.4055 15.572C91.5535 15.572 92.4775 15.012 93.1775 13.892L93.5555 14.018C93.2755 14.928 92.7715 15.705 92.0435 16.349C91.3295 16.979 90.4335 17.294 89.3555 17.294C87.8715 17.294 86.6885 16.825 85.8065 15.887C84.9385 14.935 84.5045 13.535 84.5045 11.687C84.5045 9.797 84.9735 8.355 85.9115 7.361C86.8495 6.353 88.0955 5.849 89.6495 5.849C92.2815 5.849 93.5975 7.403 93.5975 10.511H87.6965C87.6825 10.721 87.6755 11.05 87.6755 11.498C87.6755 12.422 87.8015 13.192 88.0535 13.808C88.3195 14.424 88.6555 14.872 89.0615 15.152C89.4815 15.432 89.9295 15.572 90.4055 15.572ZM89.5235 6.29C89.0195 6.29 88.5995 6.605 88.2635 7.235C87.9415 7.851 87.7385 8.81 87.6545 10.112H90.9515C90.9795 9.006 90.8675 8.096 90.6155 7.382C90.3775 6.654 90.0135 6.29 89.5235 6.29Z" fill="#151515"/>
</svg>
