<svg width="375" height="110" viewBox="0 0 375 110" fill="none" xmlns="http://www.w3.org/2000/svg">
<g opacity="0.3">
<path d="M308.83 20.1284C305.32 20.6928 298.774 19.4976 298.774 15.9091C298.775 13.6625 321.273 11.5517 325.269 11.9935" stroke="#050505"/>
<path d="M305.626 45.0423C304.839 47.4152 301.542 48.3851 301.542 47.1875C301.541 46.3159 304.898 26.1796 305.626 24.5903C306.355 23.001 314.447 12.7744 320.241 12.276C323.665 11.9813 329.658 12.3383 332.972 12.5951" stroke="#050505"/>
<path d="M-19.2173 65.9418C-17.9094 64.0344 -14.5088 59.8927 -11.3697 58.5846C-7.44592 56.9496 15.1665 38.6523 20.8888 37.3443C26.6111 36.0364 27.7596 35.4099 29.231 36.7177C29.6468 37.0873 33.4166 39.0609 36.0091 40.6293M52.3842 69.9829C52.3842 69.002 54.1912 51.5544 53.3737 50.2464C52.7872 49.308 42.5915 44.6113 36.0091 40.6293M52.3842 69.9829C52.3842 70.7316 50.7671 74.7553 47.6205 80.1235M52.3842 69.9829C54.4294 69.5753 56.1695 69.2406 57.2029 69.1399M52.3842 69.9829C51.139 70.2311 42.1421 71.6066 39.5618 71.6066M38.8002 80.4002C37.0906 82.7878 31.7861 93.4437 37.0243 91.6103C40.3764 90.437 44.3116 85.7687 47.6205 80.1235M38.8002 80.4002C36.9901 80.1958 32.3938 80.4938 28.9285 82.1477C25.4633 83.8016 16.6052 89.8638 8.66703 90.955C3.90079 91.6103 -2.09289 91.3471 -6.7612 91.6103M38.8002 80.4002C41.3897 80.1197 46.5584 80.69 47.6205 80.1235M-12.7291 93.8993C-12.2949 93.155 -10.784 91.6103 -6.7612 91.6103M-6.7612 91.6103C-10.295 95.468 -17.3299 104.361 -17.1991 109.069M47.6205 80.1235C48.1266 79.9821 50.9896 80.077 54.7865 77.9309C58.5834 75.7847 60.2239 71.6519 59.7708 70.4998C59.3177 69.3477 57.6219 69.0991 57.2029 69.1399M39.5618 71.6066C37.6444 71.6066 27.8892 71.5625 23.3524 70.911C21.227 66.4966 21.0781 65.1129 20.2744 64.2669C21.1839 63.2094 27.8349 57.8381 28.7365 55.3837C30.3601 57.1827 37.1991 56.9579 43.854 60.1475C42.8302 63.219 41.2944 69.8346 39.5618 71.6066ZM36.0091 40.6293C37.6349 41.2105 40.6553 41.5297 42.8317 42.3979M58.3951 51.3555C59.4755 53.4198 57.148 69.3338 57.2029 69.1399M58.3951 51.3555C57.0601 48.8046 50.0087 45.2611 42.8317 42.3979M58.3951 51.3555C58.4403 51.4627 57.5561 50.9132 58.846 51.0571M42.8317 42.3979C49.4774 43.4719 51.038 44.131 55.3274 44.5856M55.3274 44.5856C64.5835 45.5667 71.273 45.2488 72.2356 46.3654C73.9965 48.408 74.9094 51.423 66.8749 51.3555C63.6936 51.3288 60.1102 51.198 58.846 51.0571M55.3274 44.5856C57.1429 45.7321 57.204 46.8041 58.846 51.0571" stroke="#050505"/>
<path d="M62.1655 50.9271C61.5868 46.9582 62.6038 41.1917 69.529 39.7282C76.4542 38.2647 66.9336 53.1138 61.6862 39.3023C59.9829 34.8192 54.9498 45.9365 64.707 44.6968C67.9761 44.2814 66.7932 49.0318 84.3257 36.3744C88.6963 33.219 90.858 41.4183 94.0001 40.9222C97.1422 40.4261 101.938 38.2762 107.726 33.7284C113.514 29.1806 116.078 35.0514 124.181 31.9919C132.284 28.9325 138.651 29.6768 144.77 36.3744C150.889 43.072 162.69 30.8979 171.759 21.6088C175.288 17.9939 182.787 13.7169 191.39 13.7165C202.731 13.716 211.013 -3.26387 220.77 2.11081C230.528 7.4855 223.794 29.2066 228.246 34.3028C249.679 58.8382 265.84 15.7471 272.762 14.0364C278.258 12.6782 281.474 16.5531 285.05 15.7386C287.611 15.1553 295.294 3.60828 302.82 8.49534C306.855 11.1154 314.395 17.4772 314.828 10.4808C315.141 5.42481 310.994 12.0397 308.203 12.6169C300.821 14.1437 299.097 8.68119 304.798 9.614C308.203 10.1712 309.281 17.6427 308.377 20.1284" stroke="#050505"/>
<path d="M409.875 82.7048C403.721 74.4283 395.744 56.7228 393.152 51.9168C391.914 49.62 380.555 41.469 374.053 34.3238C371.763 31.8073 357.517 12.1674 354.915 11.5261C347.449 9.68687 330.751 13.8982 319.599 14.7467C317.288 14.9225 309.45 32.2973 307.024 37.2451M314.624 37.2451C317.531 28.9682 323.962 22.9153 329.977 24.0124M307.024 37.2451C303.839 39.1386 305.886 45.2869 318.058 45.2869M307.024 37.2451C308.784 36.1984 316.055 36.9882 319.233 37.48M318.058 45.2869C323.03 45.2869 344.566 49.5548 347.415 52.0469C356.905 60.3513 362.191 59.7482 366.513 60.9759C370.264 62.0416 370.818 63.7527 371.258 66.8263C371.601 69.2225 381.167 79.4608 385.169 96.8587M318.058 45.2869C318.058 46.0757 317.952 50.0205 316.645 50.9416C315.337 51.8628 310.271 48.1728 310.464 44.3663C307.479 49.425 306.462 48.2829 305.558 47.5618C305.32 47.3725 305.228 44.8765 306.829 41.9286M329.977 24.0124C332.521 24.0929 337.546 24.1377 338.11 24.5042C338.867 24.996 343.927 31.5869 344.314 32.2973C344.702 33.0076 341.897 37.689 335.084 37.48C331.321 37.3646 321.957 37.48 319.233 37.48M329.977 24.0124C329.977 24.0124 320.034 33.8092 319.233 37.48" stroke="#050505"/>
</g>
</svg>
