<svg width="59" height="31" viewBox="0 0 59 31" fill="none" xmlns="http://www.w3.org/2000/svg">
<path d="M8.44434 13.6187C8.25879 14.0288 8.05371 14.522 7.8291 15.0981C7.60449 15.6743 7.36035 16.2749 7.09668 16.8999C6.83301 17.5249 6.5498 18.145 6.24707 18.7603C5.9541 19.3755 5.6416 19.9272 5.30957 20.4155C4.9873 20.894 4.65039 21.2847 4.29883 21.5874C3.95703 21.8901 3.60547 22.0415 3.24414 22.0415C2.94141 22.0415 2.69238 21.9927 2.49707 21.895C2.30176 21.8071 2.15039 21.6899 2.04297 21.5435C1.93555 21.4067 1.85742 21.2554 1.80859 21.0894C1.76953 20.9136 1.75 20.7476 1.75 20.5913C1.75 20.3569 1.78418 20.1177 1.85254 19.8735C1.93066 19.6294 2.02344 19.4048 2.13086 19.1997L7.74121 8.87256C7.98535 8.44287 8.21484 8.10596 8.42969 7.86182C8.6543 7.61768 8.85938 7.43701 9.04492 7.31982C9.24023 7.20264 9.41113 7.13428 9.55762 7.11475C9.7041 7.08545 9.82617 7.0708 9.92383 7.0708C10.0996 7.0708 10.2607 7.13428 10.4072 7.26123C10.5537 7.37842 10.627 7.59814 10.627 7.92041C10.627 8.23291 10.5439 8.6626 10.3779 9.20947C10.2119 9.75635 9.9043 10.4595 9.45508 11.3188C10.2168 11.2603 10.9688 11.1333 11.7109 10.938C12.4531 10.7329 13.1172 10.4546 13.7031 10.103C14.2988 9.75146 14.7773 9.32666 15.1387 8.82861C15.5 8.3208 15.6807 7.73486 15.6807 7.0708C15.6807 6.48486 15.583 5.92822 15.3877 5.40088C15.2021 4.86377 14.9238 4.39502 14.5527 3.99463C14.1914 3.58447 13.7422 3.26221 13.2051 3.02783C12.668 2.78369 12.0479 2.66162 11.3447 2.66162C10.3877 2.66162 9.5625 2.75439 8.86914 2.93994C8.18555 3.11572 7.59473 3.3501 7.09668 3.64307C6.6084 3.93604 6.19824 4.27295 5.86621 4.65381C5.53418 5.03467 5.24609 5.42041 5.00195 5.81104C4.76758 6.20166 4.55762 6.5874 4.37207 6.96826C4.18652 7.34912 3.99121 7.68604 3.78613 7.979C3.59082 8.27197 3.36621 8.51123 3.1123 8.69678C2.8584 8.87256 2.5459 8.96045 2.1748 8.96045C1.69629 8.96045 1.33984 8.83838 1.10547 8.59424C0.880859 8.3501 0.768555 8.00342 0.768555 7.5542C0.768555 7.10498 0.890625 6.6167 1.13477 6.08936C1.37891 5.55225 1.72559 5.01514 2.1748 4.47803C2.62402 3.94092 3.16602 3.42822 3.80078 2.93994C4.44531 2.44189 5.16797 2.00244 5.96875 1.62158C6.76953 1.24072 7.63867 0.937988 8.57617 0.713379C9.52344 0.479004 10.5195 0.361816 11.5645 0.361816C12.541 0.361816 13.4785 0.503418 14.377 0.786621C15.2852 1.06006 16.0859 1.4751 16.7793 2.03174C17.4727 2.58838 18.0244 3.28662 18.4346 4.12646C18.8545 4.95654 19.0645 5.93311 19.0645 7.05615C19.0645 8.08154 18.8154 9.00928 18.3174 9.83936C17.8291 10.6597 17.165 11.3579 16.3252 11.9341C15.4951 12.5005 14.5332 12.9399 13.4395 13.2524C12.3457 13.5552 11.1934 13.7065 9.98242 13.7065C9.72852 13.7065 9.46973 13.7017 9.20605 13.6919C8.95215 13.6821 8.69824 13.6577 8.44434 13.6187ZM21.877 13.4136C21.418 13.4136 20.9736 13.5308 20.5439 13.7651C20.124 13.9897 19.748 14.2925 19.416 14.6733C19.0938 15.0444 18.835 15.4692 18.6396 15.9478C18.4443 16.4165 18.3467 16.8999 18.3467 17.3979C18.3467 17.5835 18.3613 17.7886 18.3906 18.0132C18.4199 18.228 18.4785 18.4331 18.5664 18.6284C18.6641 18.814 18.8008 18.9702 18.9766 19.0972C19.1523 19.2241 19.3867 19.2876 19.6797 19.2876C20.1289 19.2876 20.5635 19.1704 20.9834 18.936C21.4131 18.6919 21.7939 18.3794 22.126 17.9985C22.458 17.6079 22.7217 17.1685 22.917 16.6802C23.1123 16.1919 23.21 15.6987 23.21 15.2007C23.21 15.0054 23.1953 14.8052 23.166 14.6001C23.1465 14.3853 23.0879 14.1899 22.9902 14.0142C22.9023 13.8384 22.7705 13.6968 22.5947 13.5894C22.4189 13.4722 22.1797 13.4136 21.877 13.4136ZM22.6387 10.8354C23.0098 10.8354 23.4053 10.8843 23.8252 10.9819C24.2549 11.0796 24.6504 11.2456 25.0117 11.48C25.373 11.7144 25.6709 12.0269 25.9053 12.4175C26.1494 12.7983 26.2715 13.272 26.2715 13.8384C26.2715 14.1313 26.2324 14.4683 26.1543 14.8491C26.0762 15.2202 25.959 15.6108 25.8027 16.021C25.9004 16.1382 26.0127 16.2212 26.1396 16.27C26.2666 16.3188 26.4033 16.3433 26.5498 16.3433C26.7549 16.3433 26.9795 16.2847 27.2236 16.1675C27.4775 16.0503 27.7363 15.8989 28 15.7134C28.2637 15.5278 28.5273 15.3179 28.791 15.0835C29.0547 14.8491 29.3037 14.6147 29.5381 14.3804C29.7725 14.146 29.9824 13.9263 30.168 13.7212C30.3633 13.5063 30.5244 13.3257 30.6514 13.1792C30.7197 13.1108 30.8027 13.0767 30.9004 13.0767C31.0371 13.0767 31.1592 13.1499 31.2666 13.2964C31.374 13.4331 31.4277 13.6284 31.4277 13.8823C31.4277 14.1362 31.3496 14.4292 31.1934 14.7612C31.0469 15.0933 30.7686 15.4399 30.3584 15.8013C30.124 16.0552 29.8555 16.3481 29.5527 16.6802C29.25 17.0122 28.9277 17.3247 28.5859 17.6177C28.2441 17.9106 27.8877 18.1597 27.5166 18.3647C27.1455 18.5698 26.7744 18.6724 26.4033 18.6724C26.1494 18.6724 25.9004 18.6333 25.6562 18.5552C25.4219 18.4771 25.1826 18.3501 24.9385 18.1743C24.5869 18.7212 24.1865 19.2192 23.7373 19.6685C23.2881 20.1177 22.7852 20.5034 22.2285 20.8257C21.6816 21.1479 21.0859 21.397 20.4414 21.5728C19.8066 21.7583 19.1279 21.8511 18.4053 21.8511C18.1318 21.8511 17.8145 21.7974 17.4531 21.6899C17.0918 21.5825 16.7451 21.4067 16.4131 21.1626C16.0908 20.9087 15.8174 20.5815 15.5928 20.1812C15.3682 19.7808 15.2559 19.2925 15.2559 18.7163C15.2559 18.3257 15.3193 17.8569 15.4463 17.3101C15.5732 16.7632 15.7637 16.2017 16.0176 15.6255C16.2812 15.0396 16.6084 14.4634 16.999 13.897C17.3994 13.3208 17.873 12.8081 18.4199 12.3589C18.9668 11.8999 19.5918 11.5337 20.2949 11.2603C20.998 10.9771 21.7793 10.8354 22.6387 10.8354ZM31.0322 12.5933C31.2275 12.1733 31.4717 11.8608 31.7646 11.6558C32.0576 11.4507 32.3457 11.3481 32.6289 11.3481C32.8633 11.3481 33.0732 11.436 33.2588 11.6118C33.4443 11.7778 33.5371 12.0269 33.5371 12.3589C33.5371 12.4858 33.5225 12.6226 33.4932 12.769C33.4639 12.9155 33.4102 13.0718 33.332 13.2378C33.5469 12.9644 33.8545 12.686 34.2549 12.4028C34.6553 12.1099 35.0947 11.8511 35.5732 11.6265C36.0615 11.3921 36.5596 11.2017 37.0674 11.0552C37.585 10.9087 38.0732 10.8354 38.5322 10.8354C39.0498 10.8354 39.4795 10.9624 39.8213 11.2163C40.1729 11.4604 40.3486 11.8804 40.3486 12.4761C40.3486 12.8276 40.2949 13.1938 40.1875 13.5747C40.0801 13.9556 39.9385 14.3364 39.7627 14.7173C39.5967 15.0981 39.4062 15.4741 39.1914 15.8452C38.9863 16.2065 38.7812 16.5483 38.5762 16.8706C38.3711 17.1929 38.1807 17.4907 38.0049 17.7642C37.8389 18.0278 37.707 18.2476 37.6094 18.4233C37.4824 18.5796 37.4189 18.7603 37.4189 18.9653C37.4189 19.0435 37.4434 19.1118 37.4922 19.1704C37.541 19.229 37.6191 19.2583 37.7266 19.2583C37.7949 19.2583 37.873 19.2534 37.9609 19.2437C38.0488 19.2241 38.1562 19.1704 38.2832 19.0825C38.8105 18.8872 39.3477 18.6431 39.8945 18.3501C40.4512 18.0571 40.9834 17.7495 41.4912 17.4272C41.999 17.0952 42.4629 16.7681 42.8828 16.4458C43.3125 16.1138 43.6689 15.8159 43.9521 15.5522C44.0303 15.4839 44.1084 15.4351 44.1865 15.4058C44.2646 15.3765 44.3379 15.3618 44.4062 15.3618C44.5723 15.3618 44.6992 15.4253 44.7871 15.5522C44.8848 15.6792 44.9336 15.8403 44.9336 16.0356C44.9336 16.3384 44.8359 16.6753 44.6406 17.0464C44.4551 17.4175 44.1572 17.7642 43.7471 18.0864C43.1904 18.4868 42.6777 18.853 42.209 19.1851C41.75 19.5171 41.2764 19.8296 40.7881 20.1226C40.3096 20.4058 39.792 20.6743 39.2354 20.9282C38.6885 21.1724 38.0439 21.4019 37.3018 21.6167C37.0479 21.6948 36.8135 21.7534 36.5986 21.7925C36.3936 21.8315 36.2031 21.8511 36.0273 21.8511C35.5098 21.8511 35.1289 21.7095 34.8848 21.4263C34.6504 21.1333 34.5332 20.728 34.5332 20.2104C34.5332 20.1421 34.5332 20.0786 34.5332 20.02C34.543 19.9517 34.5527 19.8784 34.5625 19.8003C34.582 19.4976 34.6602 19.1655 34.7969 18.8042C34.9434 18.4429 35.1143 18.0718 35.3096 17.6909C35.5146 17.3101 35.7295 16.9341 35.9541 16.563C36.1787 16.1821 36.3838 15.8257 36.5693 15.4937C36.7646 15.1519 36.9258 14.8491 37.0527 14.5854C37.1797 14.3218 37.2432 14.1069 37.2432 13.9409C37.2432 13.7944 37.1992 13.6724 37.1113 13.5747C37.0332 13.4673 36.9111 13.4136 36.7451 13.4136C36.1201 13.4136 35.5244 13.5991 34.958 13.9702C34.4014 14.3413 33.8789 14.8003 33.3906 15.3472C32.9023 15.8843 32.4531 16.4556 32.043 17.061C31.6328 17.6665 31.2715 18.2085 30.959 18.687C30.7637 19.0093 30.583 19.356 30.417 19.7271C30.2607 20.0884 30.0947 20.4302 29.9189 20.7524C29.7432 21.0649 29.543 21.3237 29.3184 21.5288C29.1035 21.7437 28.8301 21.8511 28.498 21.8511C28.1562 21.8511 27.8877 21.7437 27.6924 21.5288C27.4971 21.314 27.3994 21.0503 27.3994 20.7378C27.3994 20.5718 27.4678 20.3032 27.6045 19.9321C27.7412 19.561 27.917 19.1313 28.1318 18.6431C28.3467 18.1548 28.5859 17.6323 28.8496 17.0757C29.123 16.5093 29.3916 15.9526 29.6553 15.4058C29.9287 14.8491 30.1875 14.3267 30.4316 13.8384C30.6758 13.3501 30.876 12.9351 31.0322 12.5933ZM49.4307 10.8354C49.8604 10.8354 50.2363 10.8892 50.5586 10.9966C50.8809 11.104 51.1543 11.2212 51.3789 11.3481C51.6328 11.5044 51.8574 11.6753 52.0527 11.8608C52.1895 11.7729 52.3359 11.6899 52.4922 11.6118C52.6289 11.5435 52.7803 11.4849 52.9463 11.436C53.1123 11.3774 53.2783 11.3481 53.4443 11.3481C53.874 11.3481 54.2061 11.436 54.4404 11.6118C54.6748 11.7876 54.792 11.9976 54.792 12.2417C54.792 12.3687 54.7578 12.4956 54.6895 12.6226L51.2617 19.1118L51.54 18.8628C52.6924 18.189 53.6396 17.6616 54.3818 17.2808C55.124 16.8901 55.7148 16.6021 56.1543 16.4165C56.5938 16.231 56.9062 16.1187 57.0918 16.0796C57.2871 16.0308 57.4092 16.0063 57.458 16.0063C57.6826 16.0063 57.8535 16.0942 57.9707 16.27C58.0977 16.436 58.1611 16.646 58.1611 16.8999C58.1611 17.1831 58.0781 17.4712 57.9121 17.7642C57.7559 18.0571 57.5117 18.2671 57.1797 18.394C56.7402 18.6187 56.2275 18.8628 55.6416 19.1265C55.0557 19.3804 54.4453 19.6636 53.8105 19.9761C53.1758 20.2886 52.5361 20.6401 51.8916 21.0308C51.2568 21.4116 50.6611 21.8364 50.1045 22.3052L47.2627 27.4468C47.0283 28.0034 46.8135 28.4575 46.6182 28.8091C46.4326 29.1606 46.2471 29.439 46.0615 29.644C45.876 29.8491 45.6855 29.9907 45.4902 30.0688C45.2949 30.147 45.0703 30.186 44.8164 30.186C44.4355 30.186 44.1328 30.0542 43.9082 29.7905C43.6934 29.5269 43.5859 29.2095 43.5859 28.8384C43.5859 28.4478 43.6787 27.9937 43.8643 27.4761C44.0498 26.9585 44.3086 26.397 44.6406 25.7915C44.9824 25.1958 45.3926 24.5659 45.8711 23.9019C46.3496 23.2476 46.8818 22.5786 47.4678 21.895L49.2842 19.5806C48.9131 19.9224 48.5469 20.2153 48.1855 20.4595C47.8242 20.7036 47.4775 20.9038 47.1455 21.0601C46.8135 21.2065 46.501 21.314 46.208 21.3823C45.9248 21.4507 45.6758 21.4849 45.4609 21.4849C45.0703 21.4849 44.709 21.397 44.377 21.2212C44.0449 21.0356 43.7568 20.7817 43.5127 20.4595C43.2783 20.1372 43.0928 19.7563 42.9561 19.3169C42.8193 18.8774 42.751 18.3989 42.751 17.8813C42.751 16.8071 42.9561 15.8354 43.3662 14.9663C43.7861 14.0972 44.3184 13.3599 44.9629 12.7544C45.6172 12.1392 46.335 11.6655 47.1162 11.3335C47.9072 11.0015 48.6787 10.8354 49.4307 10.8354ZM48.874 13.4136C48.415 13.4136 47.9707 13.5308 47.541 13.7651C47.1113 13.9897 46.7305 14.2925 46.3984 14.6733C46.0664 15.0444 45.8027 15.4741 45.6074 15.9624C45.4121 16.4507 45.3145 16.9536 45.3145 17.4712C45.3145 17.6274 45.3242 17.7983 45.3438 17.9839C45.373 18.1597 45.4268 18.3257 45.5049 18.4819C45.5928 18.6382 45.7148 18.77 45.8711 18.8774C46.0371 18.9751 46.2617 19.0239 46.5449 19.0239C46.75 19.0239 46.9893 18.936 47.2627 18.7603C47.5459 18.5747 47.834 18.3452 48.127 18.0718C48.4297 17.7886 48.7227 17.481 49.0059 17.1489C49.2891 16.8071 49.543 16.4751 49.7676 16.1528C50.002 15.8306 50.1875 15.5425 50.3242 15.2886C50.4609 15.0249 50.5293 14.8296 50.5293 14.7026C50.5293 14.4878 50.4707 14.3022 50.3535 14.146C50.2363 13.98 50.0898 13.8433 49.9141 13.7358C49.748 13.6284 49.5674 13.5503 49.3721 13.5015C49.1865 13.4429 49.0205 13.4136 48.874 13.4136Z" fill="#151515"/>
</svg>
